<svg width="46" height="47" viewBox="0 0 46 47" fill="none" xmlns="http://www.w3.org/2000/svg">
<path d="M9.50879 16.3243V4.16216C9.50879 1.97297 11.3077 1 13.6414 1C15.9751 1 26.9305 1 32.1165 1C34.3044 1 35.7629 1.97297 35.7629 4.16216L36.2491 40.1622C36.2534 40.2386 36.256 40.3199 36.2567 40.4054M9.50879 37.4865V40.4054M9.50879 40.4054V43.3243C9.50879 45.0757 10.4812 46 13.6414 46H33.0889C36.4922 45.7568 36.2698 41.9524 36.2567 40.4054M9.50879 40.4054H36.2567" stroke="#039B6E" stroke-width="2"/>
<path d="M1 23.1351V33.8378M6.34807 26.5405V33.8378M12.6685 19V33.8378M19.7182 13.6486V33.8378M25.5525 22.6486V33.8378M32.116 19.9729V33.8378M40.1381 26.5405V33.8378M45 22.6486V33.8378M21.4199 43.0811H24.0939M9.50829 6.35132H35.7624" stroke="#039B6E" stroke-width="2"/>
</svg>
