<svg width="45" height="45" viewBox="0 0 45 45" fill="none" xmlns="http://www.w3.org/2000/svg">
<circle cx="22.5" cy="22.5" r="21.5" stroke="black" stroke-width="2"/>
<path d="M27.4504 15.3H18.0004L14.8504 23.85L22.9504 31.05L30.6004 25.2L27.4504 15.3Z" fill="#D9D9D9"/>
<path d="M15.3004 2.25L13.5004 8.55M13.5004 8.55L18.0004 15.3M13.5004 8.55L5.40039 9M18.0004 15.3H27.4504M18.0004 15.3L14.8504 23.85M27.4504 15.3L32.4004 9M27.4504 15.3L30.6004 25.2M32.4004 9H39.1504M32.4004 9L30.6004 2.7M14.8504 23.85L22.9504 31.05M14.8504 23.85L8.10039 27M22.9504 31.05V38.7M22.9504 31.05L30.6004 25.2M22.9504 38.7L17.1004 43.2M22.9504 38.7L27.9004 43.2M8.10039 27L0.900391 22.95M8.10039 27L4.05039 33.75M30.6004 25.2L38.7004 27.45M38.7004 27.45L44.1004 23.85M38.7004 27.45L40.9504 33.75" stroke="black" stroke-width="2"/>
</svg>
