<svg width="136" height="65" viewBox="0 0 136 65" fill="none" xmlns="http://www.w3.org/2000/svg">
<path d="M126.5 61.9999C121.092 57.3564 48.4013 56.9108 12 58.3179L15.2293 63.0659C51.4573 65.0006 131.908 66.6433 126.5 61.9999Z" fill="white"/>
<path d="M16.5021 56.035C16.7571 25.294 40.5052 0.5 69.7105 0.5C98.9159 0.5 122.664 25.294 122.919 56.035H69.7105H16.5021Z" fill="#F7FEFF" stroke="#F7FEFF"/>
<mask id="path-3-outside-1_488_156" maskUnits="userSpaceOnUse" x="0" y="11.5747" width="135" height="52" fill="black">
<rect fill="white" y="11.5747" width="135" height="52"/>
<path d="M6 32.981C6 31.4447 6.32919 29.8865 6.98758 28.3064C7.64597 26.7043 8.57868 25.223 9.78573 23.8623C10.9928 22.5016 12.5619 21.3934 14.4932 20.5374C16.4464 19.6596 18.4545 19.2207 20.5174 19.2207C22.6023 19.2207 24.2263 19.6047 25.3895 20.3729C26.5746 21.141 27.1671 22.2054 27.1671 23.566C27.1671 24.9267 26.7172 25.9911 25.8175 26.7592C24.9396 27.5054 23.9301 27.8785 22.7889 27.8785C21.6477 27.8785 20.6162 27.6371 19.6945 27.1542C18.7947 26.6495 18.0704 25.9362 17.5218 25.0145C16.3367 25.5851 15.3162 26.7043 14.4603 28.3723C13.6044 30.0402 13.1764 31.7191 13.1764 33.4089C13.1764 35.0768 13.4507 36.4046 13.9994 37.3922C14.5481 38.3578 15.3272 38.8406 16.3367 38.8406C17.3462 38.8406 18.235 38.3249 19.0031 37.2934C19.7932 36.2619 20.1882 35.022 20.1882 33.5735C22.4048 33.5735 23.9849 33.7491 24.9286 34.1002C25.8943 34.4514 26.3771 35.2085 26.3771 36.3717C26.3771 38.1932 25.3895 39.905 23.4143 41.5071C21.4392 43.1092 18.9593 43.9102 15.9746 43.9102C12.9899 43.9102 10.5758 42.9884 8.73231 41.145C6.91077 39.3015 6 36.5801 6 32.981Z"/>
<path d="M32.3887 22.6114L30.5452 19.9778C33.2885 18.3757 35.4502 17.5747 37.0303 17.5747C37.9301 17.5747 38.5666 17.7613 38.9397 18.1343C39.3128 18.4855 39.4993 19.1658 39.4993 20.1753C39.4993 21.1629 39.0055 23.972 38.0179 28.6027C37.0523 33.2333 36.5695 36.4814 36.5695 38.3468C36.5695 40.2122 36.9096 41.529 37.59 42.2971C36.0537 43.3725 34.6602 43.9102 33.4092 43.9102C32.1583 43.9102 31.2365 43.5042 30.644 42.6922C30.0734 41.8582 29.7881 40.717 29.7881 39.2686C29.7881 37.8201 30.1941 34.8574 31.0061 30.3803C31.8181 25.9033 32.279 23.3136 32.3887 22.6114Z"/>
<path d="M47.491 43.9102C45.5597 43.9102 44.21 43.4383 43.4419 42.4947C42.6738 41.551 42.2897 40.3659 42.2897 38.9394C42.2897 37.4909 42.5311 35.5158 43.014 33.0139C43.4968 30.512 43.7382 28.7014 43.7382 27.5822C43.7382 26.4629 43.5077 25.5851 43.0469 24.9486C45.0879 23.8733 46.8107 23.3356 48.2152 23.3356C49.115 23.3356 49.7624 23.5221 50.1575 23.8952C50.5744 24.2464 50.7829 24.8279 50.7829 25.6399C50.7829 26.452 50.4428 28.4491 49.7624 31.6313C49.104 34.7915 48.7748 36.7447 48.7748 37.4909C48.7748 38.2371 48.9833 38.8296 49.4003 39.2686C49.8173 39.6855 50.3659 39.894 51.0463 39.894C51.7266 39.894 52.4508 39.6307 53.219 39.104C53.9871 38.5553 54.6125 37.7872 55.0954 36.7996C55.4026 35.022 56.0061 32.2128 56.9059 28.3723L54.9308 25.7387C57.1473 24.1366 59.2542 23.3356 61.2513 23.3356C62.2389 23.3356 62.9411 23.5221 63.3581 23.8952C63.797 24.2464 64.0165 24.795 64.0165 25.5412C64.0165 26.2654 63.6105 28.3613 62.7985 31.8288C62.0084 35.2963 61.6134 37.7652 61.6134 39.2356C61.6134 40.6841 61.9536 41.7046 62.6339 42.2971C61.4049 43.3725 60.1101 43.9102 58.7494 43.9102C57.4107 43.9102 56.445 43.6139 55.8525 43.0214C55.26 42.4288 54.9637 41.6497 54.9637 40.6841L54.6345 40.5195C53.9103 41.5729 52.9007 42.4069 51.6059 43.0214C50.333 43.6139 48.9614 43.9102 47.491 43.9102Z"/>
<path d="M67.4622 36.8325C67.4622 34.989 68.1755 30.2487 69.602 22.6114L67.7585 19.9778C69.1192 19.1658 70.2604 18.5623 71.1821 18.1673C72.1258 17.7722 73.0585 17.5747 73.9803 17.5747C74.924 17.5747 75.6153 17.7613 76.0542 18.1343C76.4931 18.5074 76.7126 19.1 76.7126 19.912C76.7126 21.3165 76.2846 24.0708 75.4287 28.1747L75.7579 28.3393C77.338 25.201 79.6424 23.6319 82.671 23.6319C84.3828 23.6319 85.7215 24.3671 86.6871 25.8375C87.6528 27.2859 88.1356 29.0526 88.1356 31.1375C88.1356 33.2004 87.7186 35.0659 86.8847 36.7338C86.0726 38.3797 85.0082 39.7185 83.6915 40.7499C82.3966 41.7595 80.9811 42.5386 79.4449 43.0872C77.9086 43.6359 76.3834 43.9102 74.8691 43.9102C72.3892 43.9102 70.5347 43.3396 69.3057 42.1984C68.0767 41.0572 67.4622 39.2686 67.4622 36.8325ZM73.9803 40.0915C76.4163 40.0915 78.3915 39.2576 79.9057 37.5897C81.442 35.9218 82.2101 34.0563 82.2101 31.9934C82.2101 31.0497 81.9467 30.1938 81.42 29.4257C80.9153 28.6576 80.2459 28.2735 79.412 28.2735C78.578 28.2735 77.7989 28.6137 77.0747 29.294C76.3724 29.9743 75.8238 30.7863 75.4287 31.73C75.0556 32.6737 74.7484 33.7381 74.507 34.9232C74.1558 36.7886 73.9803 38.5114 73.9803 40.0915Z"/>
<path d="M96.9665 43.9102C95.0352 43.9102 93.6855 43.4383 92.9174 42.4947C92.1493 41.551 91.7652 40.3659 91.7652 38.9394C91.7652 37.4909 92.0066 35.5158 92.4894 33.0139C92.9722 30.512 93.2137 28.7014 93.2137 27.5822C93.2137 26.4629 92.9832 25.5851 92.5223 24.9486C94.5633 23.8733 96.2861 23.3356 97.6907 23.3356C98.5905 23.3356 99.2379 23.5221 99.6329 23.8952C100.05 24.2464 100.258 24.8279 100.258 25.6399C100.258 26.452 99.9182 28.4491 99.2379 31.6313C98.5795 34.7915 98.2503 36.7447 98.2503 37.4909C98.2503 38.2371 98.4588 38.8296 98.8758 39.2686C99.2928 39.6855 99.8414 39.894 100.522 39.894C101.202 39.894 101.926 39.6307 102.694 39.104C103.463 38.5553 104.088 37.7872 104.571 36.7996C104.878 35.022 105.482 32.2128 106.381 28.3723L104.406 25.7387C106.623 24.1366 108.73 23.3356 110.727 23.3356C111.714 23.3356 112.417 23.5221 112.834 23.8952C113.273 24.2464 113.492 24.795 113.492 25.5412C113.492 26.2654 113.086 28.3613 112.274 31.8288C111.484 35.2963 111.089 37.7652 111.089 39.2356C111.089 40.6841 111.429 41.7046 112.109 42.2971C110.88 43.3725 109.586 43.9102 108.225 43.9102C106.886 43.9102 105.921 43.6139 105.328 43.0214C104.735 42.4288 104.439 41.6497 104.439 40.6841L104.11 40.5195C103.386 41.5729 102.376 42.4069 101.081 43.0214C99.8085 43.6139 98.4369 43.9102 96.9665 43.9102Z"/>
<path d="M119.67 22.6114L117.827 19.9778C120.57 18.3757 122.732 17.5747 124.312 17.5747C125.211 17.5747 125.848 17.7613 126.221 18.1343C126.594 18.4855 126.781 19.1658 126.781 20.1753C126.781 21.1629 126.287 23.972 125.299 28.6027C124.334 33.2333 123.851 36.4814 123.851 38.3468C123.851 40.2122 124.191 41.529 124.871 42.2971C123.335 43.3725 121.941 43.9102 120.691 43.9102C119.44 43.9102 118.518 43.5042 117.925 42.6922C117.355 41.8582 117.069 40.717 117.069 39.2686C117.069 37.8201 117.475 34.8574 118.287 30.3803C119.099 25.9033 119.56 23.3136 119.67 22.6114Z"/>
<path d="M12.0294 52.8244C12.0294 50.9763 12.6647 49.4689 13.9353 48.3023C15.2059 47.1357 16.8056 46.5524 18.7346 46.5524C19.7279 46.5524 20.5134 46.743 21.0909 47.1242C21.6685 47.4938 21.9572 47.9616 21.9572 48.5276C21.9572 49.0935 21.7609 49.5267 21.3681 49.827C20.987 50.1273 20.5654 50.2775 20.1033 50.2775C19.6529 50.2775 19.237 50.1562 18.8559 49.9136C18.4863 49.6711 18.1975 49.3188 17.9896 48.8568C17.2619 49.1571 16.6844 49.6884 16.257 50.4507C15.8412 51.2131 15.6332 51.9754 15.6332 52.7378C15.6332 53.5001 15.7834 54.1181 16.0837 54.5917C16.384 55.0652 16.7768 55.302 17.2619 55.302C17.747 55.302 18.1397 55.1403 18.4401 54.8169C18.7519 54.4935 18.9079 54.0141 18.9079 53.3788C20.5942 53.3788 21.4374 53.7773 21.4374 54.5743C21.4374 55.2558 21.0101 55.8969 20.1553 56.4975C19.3006 57.0866 18.1744 57.3811 16.7768 57.3811C15.3791 57.3811 14.2356 56.9653 13.3462 56.1337C12.4684 55.2905 12.0294 54.1874 12.0294 52.8244Z"/>
<path d="M26.1622 57.3811C25.1457 57.3811 24.4353 57.1328 24.0311 56.6361C23.6268 56.1394 23.4247 55.5157 23.4247 54.7649C23.4247 54.0026 23.5517 52.963 23.8058 51.6462C24.0599 50.3295 24.187 49.3765 24.187 48.7875C24.187 48.1984 24.0657 47.7363 23.8231 47.4014C24.8974 46.8354 25.8041 46.5524 26.5433 46.5524C27.0169 46.5524 27.3576 46.6506 27.5656 46.8469C27.785 47.0318 27.8948 47.3378 27.8948 47.7652C27.8948 48.1926 27.7157 49.2437 27.3576 50.9185C27.0111 52.5818 26.8379 53.6098 26.8379 54.0026C26.8379 54.3953 26.9476 54.7072 27.1671 54.9382C27.3865 55.1576 27.6753 55.2674 28.0334 55.2674C28.3914 55.2674 28.7726 55.1288 29.1769 54.8515C29.5811 54.5628 29.9103 54.1585 30.1645 53.6387C30.3262 52.7031 30.6438 51.2246 31.1174 49.2033L30.0778 47.8172C31.2444 46.974 32.3533 46.5524 33.4044 46.5524C33.9242 46.5524 34.2938 46.6506 34.5133 46.8469C34.7443 47.0318 34.8598 47.3205 34.8598 47.7132C34.8598 48.0944 34.6461 49.1975 34.2187 51.0225C33.8029 52.8475 33.595 54.147 33.595 54.9208C33.595 55.6832 33.774 56.2203 34.1321 56.5322C33.4853 57.0981 32.8038 57.3811 32.0876 57.3811C31.3831 57.3811 30.8748 57.2252 30.563 56.9133C30.2511 56.6015 30.0952 56.1914 30.0952 55.6832L29.9219 55.5966C29.5407 56.151 29.0094 56.5899 28.3279 56.9133C27.658 57.2252 26.936 57.3811 26.1622 57.3811Z"/>
<path d="M38.4752 57.3811C37.7938 57.3811 37.2913 57.2021 36.9679 56.844C36.6445 56.486 36.4828 56.0124 36.4828 55.4233C36.4828 54.8342 36.5983 53.8755 36.8293 52.5472C37.0718 51.2189 37.3202 50.006 37.5743 48.9087L36.6733 47.5227C37.8169 46.8758 38.8737 46.5524 39.844 46.5524C40.8142 46.5524 41.2994 46.9913 41.2994 47.8692C41.2994 48.4467 41.1665 49.0358 40.9009 49.6364L41.0741 49.7231C42.3101 47.6093 43.8809 46.5524 45.7868 46.5524C47.1844 46.5524 47.8832 47.2512 47.8832 48.6488C47.8832 49.2495 47.71 50.2659 47.3635 51.6982C47.0285 53.1305 46.861 54.2105 46.861 54.9382C46.861 55.6659 46.9823 56.1972 47.2249 56.5322C46.6127 57.0981 45.9658 57.3811 45.2843 57.3811C43.956 57.3811 43.2919 56.665 43.2919 55.2327C43.2919 54.7014 43.4651 53.8004 43.8116 52.5299C44.1582 51.2593 44.3314 50.4334 44.3314 50.0522C44.3314 49.5325 44.1351 49.2726 43.7423 49.2726C43.4189 49.2726 43.0493 49.417 42.6335 49.7057C42.2176 49.9829 41.8134 50.3641 41.4207 50.8492C41.0395 51.3228 40.7161 51.9292 40.4504 52.6685C40.1847 53.3962 40.0519 54.1412 40.0519 54.9035C40.0519 55.6543 40.1732 56.1972 40.4157 56.5322C39.8036 57.0981 39.1567 57.3811 38.4752 57.3811Z"/>
<path d="M57.981 47.8692C58.6279 47.8692 59.1823 48.1291 59.6443 48.6488C60.1179 49.1686 60.3547 49.9252 60.3547 50.9185C60.3547 51.9004 60.1814 52.8129 59.8349 53.6561C59.4884 54.4877 59.0321 55.1692 58.4662 55.7005C57.9002 56.2318 57.2591 56.6477 56.543 56.948C55.8268 57.2368 55.0934 57.3811 54.3426 57.3811C52.8294 57.3811 51.634 56.9653 50.7561 56.1337C49.8783 55.302 49.4393 54.1989 49.4393 52.8244C49.4393 50.9648 50.0342 49.4574 51.2239 48.3023C52.4252 47.1357 53.9499 46.5524 55.798 46.5524C56.2138 46.5524 56.6296 46.5986 57.0454 46.691C57.1725 47.0722 57.2418 47.5053 57.2533 47.9905C57.4959 47.9096 57.7385 47.8692 57.981 47.8692ZM55.8499 50.2775C55.8499 49.9541 55.925 49.5902 56.0752 49.186C56.2369 48.7817 56.491 48.4583 56.8375 48.2157C55.3128 48.5391 54.2617 49.1571 53.6842 50.0696C53.1875 50.855 52.9392 51.6636 52.9392 52.4952C52.9392 53.3269 53.1067 53.9968 53.4416 54.505C53.7882 55.0017 54.2271 55.25 54.7584 55.25C55.9366 55.25 56.7682 54.4819 57.2533 52.9457C56.3177 52.3682 55.8499 51.4788 55.8499 50.2775Z"/>
<path d="M68.4432 54.8169L68.27 54.7303C67.9581 55.5619 67.5076 56.2145 66.9185 56.6881C66.341 57.1501 65.6942 57.3811 64.978 57.3811C63.9962 57.3811 63.2108 57.0115 62.6217 56.2723C62.0326 55.533 61.7381 54.5455 61.7381 53.3095C61.7381 51.3921 62.3791 49.7866 63.6613 48.4929C64.9549 47.1992 66.5605 46.5524 68.4779 46.5524C68.9746 46.5524 69.4308 46.5986 69.8466 46.691C69.9159 47.0144 69.9564 47.2974 69.9679 47.54C70.5454 47.1704 71.1403 46.9855 71.7525 46.9855C72.5957 46.9855 73.0173 47.4418 73.0173 48.3543C73.0173 48.6777 72.8325 49.6537 72.4628 51.2824C72.1048 52.911 71.9257 54.1181 71.9257 54.9035C71.9257 55.689 72.1048 56.2318 72.4628 56.5322C71.816 57.0981 71.1403 57.3811 70.4357 57.3811C69.7427 57.3811 69.2344 57.1732 68.911 56.7574C68.5992 56.3416 68.4432 55.6947 68.4432 54.8169ZM64.9954 52.4606C64.9954 53.0265 65.1109 53.4655 65.3419 53.7773C65.5844 54.0776 65.9252 54.2278 66.3641 54.2278C66.803 54.2278 67.2362 54.0661 67.6636 53.7427C68.0909 53.4193 68.449 52.9746 68.7378 52.4086C68.8417 51.242 69.067 49.8617 69.4135 48.2677C68.2469 48.2677 67.2188 48.6893 66.3294 49.5325C65.44 50.3757 64.9954 51.3517 64.9954 52.4606Z"/>
<path d="M80.2825 48.8568C79.8552 48.9838 79.5144 49.1686 79.2603 49.4112C79.0062 49.6422 78.781 49.9772 78.5846 50.4161C80.5367 50.7049 81.9112 51.1207 82.7082 51.6636C83.5052 52.2064 83.9037 52.9803 83.9037 53.9852C83.9037 54.6205 83.7246 55.175 83.3666 55.6485C83.0085 56.1106 82.558 56.4629 82.0151 56.7054C80.9525 57.1559 79.9072 57.3811 78.8791 57.3811C75.9568 57.3811 74.4957 56.7516 74.4957 55.4926C74.4957 54.8573 74.7787 54.222 75.3446 53.5867C75.6334 53.991 76.0666 54.3375 76.6441 54.6263C77.2332 54.9151 77.8049 55.0595 78.3594 55.0595C79.3181 55.0595 79.8956 54.6379 80.092 53.7947C78.3363 53.5867 77.0657 53.194 76.2803 52.6165C75.4948 52.039 75.1021 51.2246 75.1021 50.1735C75.1021 49.3419 75.3735 48.6431 75.9164 48.0771C76.4708 47.5111 77.1523 47.1184 77.9609 46.8989C78.781 46.6679 79.6992 46.5524 80.7157 46.5524C81.7437 46.5524 82.5869 46.7488 83.2453 47.1415C83.9152 47.5227 84.2502 47.9905 84.2502 48.5449C84.2502 49.0993 84.0538 49.5267 83.6611 49.827C83.2799 50.1273 82.8583 50.2775 82.3963 50.2775C81.9458 50.2775 81.53 50.1562 81.1488 49.9136C80.7792 49.6711 80.4905 49.3188 80.2825 48.8568Z"/>
<path d="M86.0968 50.6933C86.0159 50.3699 85.9755 50.0696 85.9755 49.7924C85.9755 49.2264 86.143 48.799 86.4779 48.5102C86.8129 48.2215 87.2461 48.0771 87.7774 48.0771C87.7774 47.4765 87.6215 46.8238 87.3096 46.1193C87.8756 45.7034 88.3896 45.3916 88.8516 45.1836C89.3252 44.9642 89.8218 44.8545 90.3416 44.8545C90.8614 44.8545 91.2195 44.9526 91.4158 45.149C91.6238 45.3338 91.7277 45.6226 91.7277 46.0153C91.7277 46.408 91.6469 47.0202 91.4851 47.8518C91.9472 47.7825 92.415 47.6844 92.8885 47.5573C92.9694 47.7999 93.0098 48.1117 93.0098 48.4929C93.0098 48.8741 92.8597 49.2322 92.5593 49.5671C92.2706 49.8905 91.8432 50.0522 91.2772 50.0522H91.0173C90.6015 51.935 90.3936 53.3846 90.3936 54.4011C90.3936 55.4175 90.5726 56.1279 90.9307 56.5322C90.2839 57.0981 89.5966 57.3811 88.8689 57.3811C88.1412 57.3811 87.6157 57.1674 87.2923 56.7401C86.9804 56.3011 86.8245 55.6254 86.8245 54.7129C86.8245 54.1585 87.0266 52.7031 87.4309 50.3468C86.9688 50.4276 86.5241 50.5432 86.0968 50.6933Z"/>
<path d="M98.9108 57.3811C97.3284 57.3811 96.104 56.9711 95.2377 56.151C94.383 55.3309 93.9556 54.222 93.9556 52.8244C93.9556 50.9648 94.5909 49.4574 95.8614 48.3023C97.1436 47.1357 98.7491 46.5524 100.678 46.5524C101.752 46.5524 102.567 46.795 103.121 47.2801C103.675 47.7537 103.953 48.3832 103.953 49.1686C103.953 50.2428 103.427 51.138 102.376 51.8541C101.336 52.5587 99.7251 52.9168 97.5421 52.9284C97.5767 53.6676 97.7442 54.2509 98.0445 54.6783C98.3448 55.0941 98.7202 55.302 99.1707 55.302C99.6212 55.302 100.008 55.1519 100.332 54.8515C100.667 54.5512 100.834 54.0603 100.834 53.3788C102.52 53.3788 103.364 53.7773 103.364 54.5743C103.364 55.2558 102.948 55.8969 102.116 56.4975C101.284 57.0866 100.216 57.3811 98.9108 57.3811ZM100.384 48.5795C99.7944 48.5795 99.2516 48.8741 98.7549 49.4632C98.2697 50.0522 97.9175 50.7453 97.698 51.5423C98.8531 51.4499 99.7194 51.19 100.297 50.7626C100.886 50.3237 101.181 49.8617 101.181 49.3765C101.181 49.1455 101.105 48.9549 100.955 48.8048C100.817 48.6546 100.626 48.5795 100.384 48.5795Z"/>
<path d="M105.516 55.2327C105.516 54.7707 105.631 53.8755 105.862 52.5472C106.105 51.2189 106.353 50.006 106.607 48.9087L105.707 47.5227C107.15 46.8758 108.161 46.5524 108.739 46.5524C109.328 46.5524 109.622 46.922 109.622 47.6613C109.622 48.0655 109.432 48.9087 109.05 50.1909L109.224 50.2775C110.055 47.7941 111.089 46.5524 112.325 46.5524C112.891 46.5524 113.324 46.7257 113.624 47.0722C113.925 47.4187 114.075 47.8056 114.075 48.233C114.075 48.8683 113.838 49.4112 113.365 49.8617C112.891 50.3121 112.181 50.5374 111.234 50.5374C109.801 50.5374 109.085 52.0101 109.085 54.9555C109.085 55.6716 109.206 56.1972 109.449 56.5322C108.733 57.0981 108.074 57.3811 107.474 57.3811C106.169 57.3811 105.516 56.665 105.516 55.2327Z"/>
<path d="M120.283 43.8149C120.283 44.2538 120.052 44.635 119.59 44.9584C119.128 45.2703 118.602 45.4262 118.013 45.4262C117.424 45.4262 116.956 45.3107 116.61 45.0797C116.275 44.8487 116.107 44.5368 116.107 44.1441C116.107 43.6128 116.356 43.1969 116.852 42.8966C117.349 42.5963 117.875 42.4461 118.429 42.4461C118.983 42.4461 119.428 42.5617 119.763 42.7927C120.11 43.0237 120.283 43.3644 120.283 43.8149ZM116.904 57.3811C116.188 57.3811 115.668 57.2021 115.345 56.844C115.021 56.486 114.86 55.9431 114.86 55.2154C114.86 54.4761 115.229 52.5068 115.969 49.3072L114.998 47.8518C116.442 46.9856 117.58 46.5524 118.412 46.5524C118.885 46.5524 119.22 46.6564 119.417 46.8643C119.613 47.0606 119.711 47.384 119.711 47.8345C119.711 48.0078 119.497 49.0242 119.07 50.8839C118.643 52.7436 118.429 54.0719 118.429 54.8689C118.429 55.6659 118.608 56.2203 118.966 56.5322C118.319 57.0981 117.632 57.3811 116.904 57.3811Z"/>
<path d="M127 43.8149C127 44.2538 126.769 44.635 126.307 44.9584C125.845 45.2703 125.319 45.4262 124.73 45.4262C124.141 45.4262 123.673 45.3107 123.327 45.0797C122.992 44.8487 122.824 44.5368 122.824 44.1441C122.824 43.6128 123.073 43.1969 123.569 42.8966C124.066 42.5963 124.592 42.4461 125.146 42.4461C125.701 42.4461 126.145 42.5617 126.48 42.7927C126.827 43.0237 127 43.3644 127 43.8149ZM123.621 57.3811C122.905 57.3811 122.386 57.2021 122.062 56.844C121.739 56.486 121.577 55.9431 121.577 55.2154C121.577 54.4761 121.947 52.5068 122.686 49.3072L121.716 47.8518C123.159 46.9856 124.297 46.5524 125.129 46.5524C125.602 46.5524 125.937 46.6564 126.134 46.8643C126.33 47.0606 126.428 47.384 126.428 47.8345C126.428 48.0078 126.215 49.0242 125.787 50.8839C125.36 52.7436 125.146 54.0719 125.146 54.8689C125.146 55.6659 125.325 56.2203 125.683 56.5322C125.036 57.0981 124.349 57.3811 123.621 57.3811Z"/>
</mask>
<path d="M6 32.981C6 31.4447 6.32919 29.8865 6.98758 28.3064C7.64597 26.7043 8.57868 25.223 9.78573 23.8623C10.9928 22.5016 12.5619 21.3934 14.4932 20.5374C16.4464 19.6596 18.4545 19.2207 20.5174 19.2207C22.6023 19.2207 24.2263 19.6047 25.3895 20.3729C26.5746 21.141 27.1671 22.2054 27.1671 23.566C27.1671 24.9267 26.7172 25.9911 25.8175 26.7592C24.9396 27.5054 23.9301 27.8785 22.7889 27.8785C21.6477 27.8785 20.6162 27.6371 19.6945 27.1542C18.7947 26.6495 18.0704 25.9362 17.5218 25.0145C16.3367 25.5851 15.3162 26.7043 14.4603 28.3723C13.6044 30.0402 13.1764 31.7191 13.1764 33.4089C13.1764 35.0768 13.4507 36.4046 13.9994 37.3922C14.5481 38.3578 15.3272 38.8406 16.3367 38.8406C17.3462 38.8406 18.235 38.3249 19.0031 37.2934C19.7932 36.2619 20.1882 35.022 20.1882 33.5735C22.4048 33.5735 23.9849 33.7491 24.9286 34.1002C25.8943 34.4514 26.3771 35.2085 26.3771 36.3717C26.3771 38.1932 25.3895 39.905 23.4143 41.5071C21.4392 43.1092 18.9593 43.9102 15.9746 43.9102C12.9899 43.9102 10.5758 42.9884 8.73231 41.145C6.91077 39.3015 6 36.5801 6 32.981Z" fill="#292B33"/>
<path d="M32.3887 22.6114L30.5452 19.9778C33.2885 18.3757 35.4502 17.5747 37.0303 17.5747C37.9301 17.5747 38.5666 17.7613 38.9397 18.1343C39.3128 18.4855 39.4993 19.1658 39.4993 20.1753C39.4993 21.1629 39.0055 23.972 38.0179 28.6027C37.0523 33.2333 36.5695 36.4814 36.5695 38.3468C36.5695 40.2122 36.9096 41.529 37.59 42.2971C36.0537 43.3725 34.6602 43.9102 33.4092 43.9102C32.1583 43.9102 31.2365 43.5042 30.644 42.6922C30.0734 41.8582 29.7881 40.717 29.7881 39.2686C29.7881 37.8201 30.1941 34.8574 31.0061 30.3803C31.8181 25.9033 32.279 23.3136 32.3887 22.6114Z" fill="#292B33"/>
<path d="M47.491 43.9102C45.5597 43.9102 44.21 43.4383 43.4419 42.4947C42.6738 41.551 42.2897 40.3659 42.2897 38.9394C42.2897 37.4909 42.5311 35.5158 43.014 33.0139C43.4968 30.512 43.7382 28.7014 43.7382 27.5822C43.7382 26.4629 43.5077 25.5851 43.0469 24.9486C45.0879 23.8733 46.8107 23.3356 48.2152 23.3356C49.115 23.3356 49.7624 23.5221 50.1575 23.8952C50.5744 24.2464 50.7829 24.8279 50.7829 25.6399C50.7829 26.452 50.4428 28.4491 49.7624 31.6313C49.104 34.7915 48.7748 36.7447 48.7748 37.4909C48.7748 38.2371 48.9833 38.8296 49.4003 39.2686C49.8173 39.6855 50.3659 39.894 51.0463 39.894C51.7266 39.894 52.4508 39.6307 53.219 39.104C53.9871 38.5553 54.6125 37.7872 55.0954 36.7996C55.4026 35.022 56.0061 32.2128 56.9059 28.3723L54.9308 25.7387C57.1473 24.1366 59.2542 23.3356 61.2513 23.3356C62.2389 23.3356 62.9411 23.5221 63.3581 23.8952C63.797 24.2464 64.0165 24.795 64.0165 25.5412C64.0165 26.2654 63.6105 28.3613 62.7985 31.8288C62.0084 35.2963 61.6134 37.7652 61.6134 39.2356C61.6134 40.6841 61.9536 41.7046 62.6339 42.2971C61.4049 43.3725 60.1101 43.9102 58.7494 43.9102C57.4107 43.9102 56.445 43.6139 55.8525 43.0214C55.26 42.4288 54.9637 41.6497 54.9637 40.6841L54.6345 40.5195C53.9103 41.5729 52.9007 42.4069 51.6059 43.0214C50.333 43.6139 48.9614 43.9102 47.491 43.9102Z" fill="#292B33"/>
<path d="M67.4622 36.8325C67.4622 34.989 68.1755 30.2487 69.602 22.6114L67.7585 19.9778C69.1192 19.1658 70.2604 18.5623 71.1821 18.1673C72.1258 17.7722 73.0585 17.5747 73.9803 17.5747C74.924 17.5747 75.6153 17.7613 76.0542 18.1343C76.4931 18.5074 76.7126 19.1 76.7126 19.912C76.7126 21.3165 76.2846 24.0708 75.4287 28.1747L75.7579 28.3393C77.338 25.201 79.6424 23.6319 82.671 23.6319C84.3828 23.6319 85.7215 24.3671 86.6871 25.8375C87.6528 27.2859 88.1356 29.0526 88.1356 31.1375C88.1356 33.2004 87.7186 35.0659 86.8847 36.7338C86.0726 38.3797 85.0082 39.7185 83.6915 40.7499C82.3966 41.7595 80.9811 42.5386 79.4449 43.0872C77.9086 43.6359 76.3834 43.9102 74.8691 43.9102C72.3892 43.9102 70.5347 43.3396 69.3057 42.1984C68.0767 41.0572 67.4622 39.2686 67.4622 36.8325ZM73.9803 40.0915C76.4163 40.0915 78.3915 39.2576 79.9057 37.5897C81.442 35.9218 82.2101 34.0563 82.2101 31.9934C82.2101 31.0497 81.9467 30.1938 81.42 29.4257C80.9153 28.6576 80.2459 28.2735 79.412 28.2735C78.578 28.2735 77.7989 28.6137 77.0747 29.294C76.3724 29.9743 75.8238 30.7863 75.4287 31.73C75.0556 32.6737 74.7484 33.7381 74.507 34.9232C74.1558 36.7886 73.9803 38.5114 73.9803 40.0915Z" fill="#292B33"/>
<path d="M96.9665 43.9102C95.0352 43.9102 93.6855 43.4383 92.9174 42.4947C92.1493 41.551 91.7652 40.3659 91.7652 38.9394C91.7652 37.4909 92.0066 35.5158 92.4894 33.0139C92.9722 30.512 93.2137 28.7014 93.2137 27.5822C93.2137 26.4629 92.9832 25.5851 92.5223 24.9486C94.5633 23.8733 96.2861 23.3356 97.6907 23.3356C98.5905 23.3356 99.2379 23.5221 99.6329 23.8952C100.05 24.2464 100.258 24.8279 100.258 25.6399C100.258 26.452 99.9182 28.4491 99.2379 31.6313C98.5795 34.7915 98.2503 36.7447 98.2503 37.4909C98.2503 38.2371 98.4588 38.8296 98.8758 39.2686C99.2928 39.6855 99.8414 39.894 100.522 39.894C101.202 39.894 101.926 39.6307 102.694 39.104C103.463 38.5553 104.088 37.7872 104.571 36.7996C104.878 35.022 105.482 32.2128 106.381 28.3723L104.406 25.7387C106.623 24.1366 108.73 23.3356 110.727 23.3356C111.714 23.3356 112.417 23.5221 112.834 23.8952C113.273 24.2464 113.492 24.795 113.492 25.5412C113.492 26.2654 113.086 28.3613 112.274 31.8288C111.484 35.2963 111.089 37.7652 111.089 39.2356C111.089 40.6841 111.429 41.7046 112.109 42.2971C110.88 43.3725 109.586 43.9102 108.225 43.9102C106.886 43.9102 105.921 43.6139 105.328 43.0214C104.735 42.4288 104.439 41.6497 104.439 40.6841L104.11 40.5195C103.386 41.5729 102.376 42.4069 101.081 43.0214C99.8085 43.6139 98.4369 43.9102 96.9665 43.9102Z" fill="#292B33"/>
<path d="M119.67 22.6114L117.827 19.9778C120.57 18.3757 122.732 17.5747 124.312 17.5747C125.211 17.5747 125.848 17.7613 126.221 18.1343C126.594 18.4855 126.781 19.1658 126.781 20.1753C126.781 21.1629 126.287 23.972 125.299 28.6027C124.334 33.2333 123.851 36.4814 123.851 38.3468C123.851 40.2122 124.191 41.529 124.871 42.2971C123.335 43.3725 121.941 43.9102 120.691 43.9102C119.44 43.9102 118.518 43.5042 117.925 42.6922C117.355 41.8582 117.069 40.717 117.069 39.2686C117.069 37.8201 117.475 34.8574 118.287 30.3803C119.099 25.9033 119.56 23.3136 119.67 22.6114Z" fill="#292B33"/>
<path d="M12.0294 52.8244C12.0294 50.9763 12.6647 49.4689 13.9353 48.3023C15.2059 47.1357 16.8056 46.5524 18.7346 46.5524C19.7279 46.5524 20.5134 46.743 21.0909 47.1242C21.6685 47.4938 21.9572 47.9616 21.9572 48.5276C21.9572 49.0935 21.7609 49.5267 21.3681 49.827C20.987 50.1273 20.5654 50.2775 20.1033 50.2775C19.6529 50.2775 19.237 50.1562 18.8559 49.9136C18.4863 49.6711 18.1975 49.3188 17.9896 48.8568C17.2619 49.1571 16.6844 49.6884 16.257 50.4507C15.8412 51.2131 15.6332 51.9754 15.6332 52.7378C15.6332 53.5001 15.7834 54.1181 16.0837 54.5917C16.384 55.0652 16.7768 55.302 17.2619 55.302C17.747 55.302 18.1397 55.1403 18.4401 54.8169C18.7519 54.4935 18.9079 54.0141 18.9079 53.3788C20.5942 53.3788 21.4374 53.7773 21.4374 54.5743C21.4374 55.2558 21.0101 55.8969 20.1553 56.4975C19.3006 57.0866 18.1744 57.3811 16.7768 57.3811C15.3791 57.3811 14.2356 56.9653 13.3462 56.1337C12.4684 55.2905 12.0294 54.1874 12.0294 52.8244Z" fill="#039B6E"/>
<path d="M26.1622 57.3811C25.1457 57.3811 24.4353 57.1328 24.0311 56.6361C23.6268 56.1394 23.4247 55.5157 23.4247 54.7649C23.4247 54.0026 23.5517 52.963 23.8058 51.6462C24.0599 50.3295 24.187 49.3765 24.187 48.7875C24.187 48.1984 24.0657 47.7363 23.8231 47.4014C24.8974 46.8354 25.8041 46.5524 26.5433 46.5524C27.0169 46.5524 27.3576 46.6506 27.5656 46.8469C27.785 47.0318 27.8948 47.3378 27.8948 47.7652C27.8948 48.1926 27.7157 49.2437 27.3576 50.9185C27.0111 52.5818 26.8379 53.6098 26.8379 54.0026C26.8379 54.3953 26.9476 54.7072 27.1671 54.9382C27.3865 55.1576 27.6753 55.2674 28.0334 55.2674C28.3914 55.2674 28.7726 55.1288 29.1769 54.8515C29.5811 54.5628 29.9103 54.1585 30.1645 53.6387C30.3262 52.7031 30.6438 51.2246 31.1174 49.2033L30.0778 47.8172C31.2444 46.974 32.3533 46.5524 33.4044 46.5524C33.9242 46.5524 34.2938 46.6506 34.5133 46.8469C34.7443 47.0318 34.8598 47.3205 34.8598 47.7132C34.8598 48.0944 34.6461 49.1975 34.2187 51.0225C33.8029 52.8475 33.595 54.147 33.595 54.9208C33.595 55.6832 33.774 56.2203 34.1321 56.5322C33.4853 57.0981 32.8038 57.3811 32.0876 57.3811C31.3831 57.3811 30.8748 57.2252 30.563 56.9133C30.2511 56.6015 30.0952 56.1914 30.0952 55.6832L29.9219 55.5966C29.5407 56.151 29.0094 56.5899 28.3279 56.9133C27.658 57.2252 26.936 57.3811 26.1622 57.3811Z" fill="#039B6E"/>
<path d="M38.4752 57.3811C37.7938 57.3811 37.2913 57.2021 36.9679 56.844C36.6445 56.486 36.4828 56.0124 36.4828 55.4233C36.4828 54.8342 36.5983 53.8755 36.8293 52.5472C37.0718 51.2189 37.3202 50.006 37.5743 48.9087L36.6733 47.5227C37.8169 46.8758 38.8737 46.5524 39.844 46.5524C40.8142 46.5524 41.2994 46.9913 41.2994 47.8692C41.2994 48.4467 41.1665 49.0358 40.9009 49.6364L41.0741 49.7231C42.3101 47.6093 43.8809 46.5524 45.7868 46.5524C47.1844 46.5524 47.8832 47.2512 47.8832 48.6488C47.8832 49.2495 47.71 50.2659 47.3635 51.6982C47.0285 53.1305 46.861 54.2105 46.861 54.9382C46.861 55.6659 46.9823 56.1972 47.2249 56.5322C46.6127 57.0981 45.9658 57.3811 45.2843 57.3811C43.956 57.3811 43.2919 56.665 43.2919 55.2327C43.2919 54.7014 43.4651 53.8004 43.8116 52.5299C44.1582 51.2593 44.3314 50.4334 44.3314 50.0522C44.3314 49.5325 44.1351 49.2726 43.7423 49.2726C43.4189 49.2726 43.0493 49.417 42.6335 49.7057C42.2176 49.9829 41.8134 50.3641 41.4207 50.8492C41.0395 51.3228 40.7161 51.9292 40.4504 52.6685C40.1847 53.3962 40.0519 54.1412 40.0519 54.9035C40.0519 55.6543 40.1732 56.1972 40.4157 56.5322C39.8036 57.0981 39.1567 57.3811 38.4752 57.3811Z" fill="#039B6E"/>
<path d="M57.981 47.8692C58.6279 47.8692 59.1823 48.1291 59.6443 48.6488C60.1179 49.1686 60.3547 49.9252 60.3547 50.9185C60.3547 51.9004 60.1814 52.8129 59.8349 53.6561C59.4884 54.4877 59.0321 55.1692 58.4662 55.7005C57.9002 56.2318 57.2591 56.6477 56.543 56.948C55.8268 57.2368 55.0934 57.3811 54.3426 57.3811C52.8294 57.3811 51.634 56.9653 50.7561 56.1337C49.8783 55.302 49.4393 54.1989 49.4393 52.8244C49.4393 50.9648 50.0342 49.4574 51.2239 48.3023C52.4252 47.1357 53.9499 46.5524 55.798 46.5524C56.2138 46.5524 56.6296 46.5986 57.0454 46.691C57.1725 47.0722 57.2418 47.5053 57.2533 47.9905C57.4959 47.9096 57.7385 47.8692 57.981 47.8692ZM55.8499 50.2775C55.8499 49.9541 55.925 49.5902 56.0752 49.186C56.2369 48.7817 56.491 48.4583 56.8375 48.2157C55.3128 48.5391 54.2617 49.1571 53.6842 50.0696C53.1875 50.855 52.9392 51.6636 52.9392 52.4952C52.9392 53.3269 53.1067 53.9968 53.4416 54.505C53.7882 55.0017 54.2271 55.25 54.7584 55.25C55.9366 55.25 56.7682 54.4819 57.2533 52.9457C56.3177 52.3682 55.8499 51.4788 55.8499 50.2775Z" fill="#039B6E"/>
<path d="M68.4432 54.8169L68.27 54.7303C67.9581 55.5619 67.5076 56.2145 66.9185 56.6881C66.341 57.1501 65.6942 57.3811 64.978 57.3811C63.9962 57.3811 63.2108 57.0115 62.6217 56.2723C62.0326 55.533 61.7381 54.5455 61.7381 53.3095C61.7381 51.3921 62.3791 49.7866 63.6613 48.4929C64.9549 47.1992 66.5605 46.5524 68.4779 46.5524C68.9746 46.5524 69.4308 46.5986 69.8466 46.691C69.9159 47.0144 69.9564 47.2974 69.9679 47.54C70.5454 47.1704 71.1403 46.9855 71.7525 46.9855C72.5957 46.9855 73.0173 47.4418 73.0173 48.3543C73.0173 48.6777 72.8325 49.6537 72.4628 51.2824C72.1048 52.911 71.9257 54.1181 71.9257 54.9035C71.9257 55.689 72.1048 56.2318 72.4628 56.5322C71.816 57.0981 71.1403 57.3811 70.4357 57.3811C69.7427 57.3811 69.2344 57.1732 68.911 56.7574C68.5992 56.3416 68.4432 55.6947 68.4432 54.8169ZM64.9954 52.4606C64.9954 53.0265 65.1109 53.4655 65.3419 53.7773C65.5844 54.0776 65.9252 54.2278 66.3641 54.2278C66.803 54.2278 67.2362 54.0661 67.6636 53.7427C68.0909 53.4193 68.449 52.9746 68.7378 52.4086C68.8417 51.242 69.067 49.8617 69.4135 48.2677C68.2469 48.2677 67.2188 48.6893 66.3294 49.5325C65.44 50.3757 64.9954 51.3517 64.9954 52.4606Z" fill="#039B6E"/>
<path d="M80.2825 48.8568C79.8552 48.9838 79.5144 49.1686 79.2603 49.4112C79.0062 49.6422 78.781 49.9772 78.5846 50.4161C80.5367 50.7049 81.9112 51.1207 82.7082 51.6636C83.5052 52.2064 83.9037 52.9803 83.9037 53.9852C83.9037 54.6205 83.7246 55.175 83.3666 55.6485C83.0085 56.1106 82.558 56.4629 82.0151 56.7054C80.9525 57.1559 79.9072 57.3811 78.8791 57.3811C75.9568 57.3811 74.4957 56.7516 74.4957 55.4926C74.4957 54.8573 74.7787 54.222 75.3446 53.5867C75.6334 53.991 76.0666 54.3375 76.6441 54.6263C77.2332 54.9151 77.8049 55.0595 78.3594 55.0595C79.3181 55.0595 79.8956 54.6379 80.092 53.7947C78.3363 53.5867 77.0657 53.194 76.2803 52.6165C75.4948 52.039 75.1021 51.2246 75.1021 50.1735C75.1021 49.3419 75.3735 48.6431 75.9164 48.0771C76.4708 47.5111 77.1523 47.1184 77.9609 46.8989C78.781 46.6679 79.6992 46.5524 80.7157 46.5524C81.7437 46.5524 82.5869 46.7488 83.2453 47.1415C83.9152 47.5227 84.2502 47.9905 84.2502 48.5449C84.2502 49.0993 84.0538 49.5267 83.6611 49.827C83.2799 50.1273 82.8583 50.2775 82.3963 50.2775C81.9458 50.2775 81.53 50.1562 81.1488 49.9136C80.7792 49.6711 80.4905 49.3188 80.2825 48.8568Z" fill="#039B6E"/>
<path d="M86.0968 50.6933C86.0159 50.3699 85.9755 50.0696 85.9755 49.7924C85.9755 49.2264 86.143 48.799 86.4779 48.5102C86.8129 48.2215 87.2461 48.0771 87.7774 48.0771C87.7774 47.4765 87.6215 46.8238 87.3096 46.1193C87.8756 45.7034 88.3896 45.3916 88.8516 45.1836C89.3252 44.9642 89.8218 44.8545 90.3416 44.8545C90.8614 44.8545 91.2195 44.9526 91.4158 45.149C91.6238 45.3338 91.7277 45.6226 91.7277 46.0153C91.7277 46.408 91.6469 47.0202 91.4851 47.8518C91.9472 47.7825 92.415 47.6844 92.8885 47.5573C92.9694 47.7999 93.0098 48.1117 93.0098 48.4929C93.0098 48.8741 92.8597 49.2322 92.5593 49.5671C92.2706 49.8905 91.8432 50.0522 91.2772 50.0522H91.0173C90.6015 51.935 90.3936 53.3846 90.3936 54.4011C90.3936 55.4175 90.5726 56.1279 90.9307 56.5322C90.2839 57.0981 89.5966 57.3811 88.8689 57.3811C88.1412 57.3811 87.6157 57.1674 87.2923 56.7401C86.9804 56.3011 86.8245 55.6254 86.8245 54.7129C86.8245 54.1585 87.0266 52.7031 87.4309 50.3468C86.9688 50.4276 86.5241 50.5432 86.0968 50.6933Z" fill="#039B6E"/>
<path d="M98.9108 57.3811C97.3284 57.3811 96.104 56.9711 95.2377 56.151C94.383 55.3309 93.9556 54.222 93.9556 52.8244C93.9556 50.9648 94.5909 49.4574 95.8614 48.3023C97.1436 47.1357 98.7491 46.5524 100.678 46.5524C101.752 46.5524 102.567 46.795 103.121 47.2801C103.675 47.7537 103.953 48.3832 103.953 49.1686C103.953 50.2428 103.427 51.138 102.376 51.8541C101.336 52.5587 99.7251 52.9168 97.5421 52.9284C97.5767 53.6676 97.7442 54.2509 98.0445 54.6783C98.3448 55.0941 98.7202 55.302 99.1707 55.302C99.6212 55.302 100.008 55.1519 100.332 54.8515C100.667 54.5512 100.834 54.0603 100.834 53.3788C102.52 53.3788 103.364 53.7773 103.364 54.5743C103.364 55.2558 102.948 55.8969 102.116 56.4975C101.284 57.0866 100.216 57.3811 98.9108 57.3811ZM100.384 48.5795C99.7944 48.5795 99.2516 48.8741 98.7549 49.4632C98.2697 50.0522 97.9175 50.7453 97.698 51.5423C98.8531 51.4499 99.7194 51.19 100.297 50.7626C100.886 50.3237 101.181 49.8617 101.181 49.3765C101.181 49.1455 101.105 48.9549 100.955 48.8048C100.817 48.6546 100.626 48.5795 100.384 48.5795Z" fill="#039B6E"/>
<path d="M105.516 55.2327C105.516 54.7707 105.631 53.8755 105.862 52.5472C106.105 51.2189 106.353 50.006 106.607 48.9087L105.707 47.5227C107.15 46.8758 108.161 46.5524 108.739 46.5524C109.328 46.5524 109.622 46.922 109.622 47.6613C109.622 48.0655 109.432 48.9087 109.05 50.1909L109.224 50.2775C110.055 47.7941 111.089 46.5524 112.325 46.5524C112.891 46.5524 113.324 46.7257 113.624 47.0722C113.925 47.4187 114.075 47.8056 114.075 48.233C114.075 48.8683 113.838 49.4112 113.365 49.8617C112.891 50.3121 112.181 50.5374 111.234 50.5374C109.801 50.5374 109.085 52.0101 109.085 54.9555C109.085 55.6716 109.206 56.1972 109.449 56.5322C108.733 57.0981 108.074 57.3811 107.474 57.3811C106.169 57.3811 105.516 56.665 105.516 55.2327Z" fill="#039B6E"/>
<path d="M120.283 43.8149C120.283 44.2538 120.052 44.635 119.59 44.9584C119.128 45.2703 118.602 45.4262 118.013 45.4262C117.424 45.4262 116.956 45.3107 116.61 45.0797C116.275 44.8487 116.107 44.5368 116.107 44.1441C116.107 43.6128 116.356 43.1969 116.852 42.8966C117.349 42.5963 117.875 42.4461 118.429 42.4461C118.983 42.4461 119.428 42.5617 119.763 42.7927C120.11 43.0237 120.283 43.3644 120.283 43.8149ZM116.904 57.3811C116.188 57.3811 115.668 57.2021 115.345 56.844C115.021 56.486 114.86 55.9431 114.86 55.2154C114.86 54.4761 115.229 52.5068 115.969 49.3072L114.998 47.8518C116.442 46.9856 117.58 46.5524 118.412 46.5524C118.885 46.5524 119.22 46.6564 119.417 46.8643C119.613 47.0606 119.711 47.384 119.711 47.8345C119.711 48.0078 119.497 49.0242 119.07 50.8839C118.643 52.7436 118.429 54.0719 118.429 54.8689C118.429 55.6659 118.608 56.2203 118.966 56.5322C118.319 57.0981 117.632 57.3811 116.904 57.3811Z" fill="#039B6E"/>
<path d="M127 43.8149C127 44.2538 126.769 44.635 126.307 44.9584C125.845 45.2703 125.319 45.4262 124.73 45.4262C124.141 45.4262 123.673 45.3107 123.327 45.0797C122.992 44.8487 122.824 44.5368 122.824 44.1441C122.824 43.6128 123.073 43.1969 123.569 42.8966C124.066 42.5963 124.592 42.4461 125.146 42.4461C125.701 42.4461 126.145 42.5617 126.48 42.7927C126.827 43.0237 127 43.3644 127 43.8149ZM123.621 57.3811C122.905 57.3811 122.386 57.2021 122.062 56.844C121.739 56.486 121.577 55.9431 121.577 55.2154C121.577 54.4761 121.947 52.5068 122.686 49.3072L121.716 47.8518C123.159 46.9856 124.297 46.5524 125.129 46.5524C125.602 46.5524 125.937 46.6564 126.134 46.8643C126.33 47.0606 126.428 47.384 126.428 47.8345C126.428 48.0078 126.215 49.0242 125.787 50.8839C125.36 52.7436 125.146 54.0719 125.146 54.8689C125.146 55.6659 125.325 56.2203 125.683 56.5322C125.036 57.0981 124.349 57.3811 123.621 57.3811Z" fill="#039B6E"/>
<path d="M6 32.981C6 31.4447 6.32919 29.8865 6.98758 28.3064C7.64597 26.7043 8.57868 25.223 9.78573 23.8623C10.9928 22.5016 12.5619 21.3934 14.4932 20.5374C16.4464 19.6596 18.4545 19.2207 20.5174 19.2207C22.6023 19.2207 24.2263 19.6047 25.3895 20.3729C26.5746 21.141 27.1671 22.2054 27.1671 23.566C27.1671 24.9267 26.7172 25.9911 25.8175 26.7592C24.9396 27.5054 23.9301 27.8785 22.7889 27.8785C21.6477 27.8785 20.6162 27.6371 19.6945 27.1542C18.7947 26.6495 18.0704 25.9362 17.5218 25.0145C16.3367 25.5851 15.3162 26.7043 14.4603 28.3723C13.6044 30.0402 13.1764 31.7191 13.1764 33.4089C13.1764 35.0768 13.4507 36.4046 13.9994 37.3922C14.5481 38.3578 15.3272 38.8406 16.3367 38.8406C17.3462 38.8406 18.235 38.3249 19.0031 37.2934C19.7932 36.2619 20.1882 35.022 20.1882 33.5735C22.4048 33.5735 23.9849 33.7491 24.9286 34.1002C25.8943 34.4514 26.3771 35.2085 26.3771 36.3717C26.3771 38.1932 25.3895 39.905 23.4143 41.5071C21.4392 43.1092 18.9593 43.9102 15.9746 43.9102C12.9899 43.9102 10.5758 42.9884 8.73231 41.145C6.91077 39.3015 6 36.5801 6 32.981Z" stroke="#F7FEFF" stroke-width="12" mask="url(#path-3-outside-1_488_156)"/>
<path d="M32.3887 22.6114L30.5452 19.9778C33.2885 18.3757 35.4502 17.5747 37.0303 17.5747C37.9301 17.5747 38.5666 17.7613 38.9397 18.1343C39.3128 18.4855 39.4993 19.1658 39.4993 20.1753C39.4993 21.1629 39.0055 23.972 38.0179 28.6027C37.0523 33.2333 36.5695 36.4814 36.5695 38.3468C36.5695 40.2122 36.9096 41.529 37.59 42.2971C36.0537 43.3725 34.6602 43.9102 33.4092 43.9102C32.1583 43.9102 31.2365 43.5042 30.644 42.6922C30.0734 41.8582 29.7881 40.717 29.7881 39.2686C29.7881 37.8201 30.1941 34.8574 31.0061 30.3803C31.8181 25.9033 32.279 23.3136 32.3887 22.6114Z" stroke="#F7FEFF" stroke-width="12" mask="url(#path-3-outside-1_488_156)"/>
<path d="M47.491 43.9102C45.5597 43.9102 44.21 43.4383 43.4419 42.4947C42.6738 41.551 42.2897 40.3659 42.2897 38.9394C42.2897 37.4909 42.5311 35.5158 43.014 33.0139C43.4968 30.512 43.7382 28.7014 43.7382 27.5822C43.7382 26.4629 43.5077 25.5851 43.0469 24.9486C45.0879 23.8733 46.8107 23.3356 48.2152 23.3356C49.115 23.3356 49.7624 23.5221 50.1575 23.8952C50.5744 24.2464 50.7829 24.8279 50.7829 25.6399C50.7829 26.452 50.4428 28.4491 49.7624 31.6313C49.104 34.7915 48.7748 36.7447 48.7748 37.4909C48.7748 38.2371 48.9833 38.8296 49.4003 39.2686C49.8173 39.6855 50.3659 39.894 51.0463 39.894C51.7266 39.894 52.4508 39.6307 53.219 39.104C53.9871 38.5553 54.6125 37.7872 55.0954 36.7996C55.4026 35.022 56.0061 32.2128 56.9059 28.3723L54.9308 25.7387C57.1473 24.1366 59.2542 23.3356 61.2513 23.3356C62.2389 23.3356 62.9411 23.5221 63.3581 23.8952C63.797 24.2464 64.0165 24.795 64.0165 25.5412C64.0165 26.2654 63.6105 28.3613 62.7985 31.8288C62.0084 35.2963 61.6134 37.7652 61.6134 39.2356C61.6134 40.6841 61.9536 41.7046 62.6339 42.2971C61.4049 43.3725 60.1101 43.9102 58.7494 43.9102C57.4107 43.9102 56.445 43.6139 55.8525 43.0214C55.26 42.4288 54.9637 41.6497 54.9637 40.6841L54.6345 40.5195C53.9103 41.5729 52.9007 42.4069 51.6059 43.0214C50.333 43.6139 48.9614 43.9102 47.491 43.9102Z" stroke="#F7FEFF" stroke-width="12" mask="url(#path-3-outside-1_488_156)"/>
<path d="M67.4622 36.8325C67.4622 34.989 68.1755 30.2487 69.602 22.6114L67.7585 19.9778C69.1192 19.1658 70.2604 18.5623 71.1821 18.1673C72.1258 17.7722 73.0585 17.5747 73.9803 17.5747C74.924 17.5747 75.6153 17.7613 76.0542 18.1343C76.4931 18.5074 76.7126 19.1 76.7126 19.912C76.7126 21.3165 76.2846 24.0708 75.4287 28.1747L75.7579 28.3393C77.338 25.201 79.6424 23.6319 82.671 23.6319C84.3828 23.6319 85.7215 24.3671 86.6871 25.8375C87.6528 27.2859 88.1356 29.0526 88.1356 31.1375C88.1356 33.2004 87.7186 35.0659 86.8847 36.7338C86.0726 38.3797 85.0082 39.7185 83.6915 40.7499C82.3966 41.7595 80.9811 42.5386 79.4449 43.0872C77.9086 43.6359 76.3834 43.9102 74.8691 43.9102C72.3892 43.9102 70.5347 43.3396 69.3057 42.1984C68.0767 41.0572 67.4622 39.2686 67.4622 36.8325ZM73.9803 40.0915C76.4163 40.0915 78.3915 39.2576 79.9057 37.5897C81.442 35.9218 82.2101 34.0563 82.2101 31.9934C82.2101 31.0497 81.9467 30.1938 81.42 29.4257C80.9153 28.6576 80.2459 28.2735 79.412 28.2735C78.578 28.2735 77.7989 28.6137 77.0747 29.294C76.3724 29.9743 75.8238 30.7863 75.4287 31.73C75.0556 32.6737 74.7484 33.7381 74.507 34.9232C74.1558 36.7886 73.9803 38.5114 73.9803 40.0915Z" stroke="#F7FEFF" stroke-width="12" mask="url(#path-3-outside-1_488_156)"/>
<path d="M96.9665 43.9102C95.0352 43.9102 93.6855 43.4383 92.9174 42.4947C92.1493 41.551 91.7652 40.3659 91.7652 38.9394C91.7652 37.4909 92.0066 35.5158 92.4894 33.0139C92.9722 30.512 93.2137 28.7014 93.2137 27.5822C93.2137 26.4629 92.9832 25.5851 92.5223 24.9486C94.5633 23.8733 96.2861 23.3356 97.6907 23.3356C98.5905 23.3356 99.2379 23.5221 99.6329 23.8952C100.05 24.2464 100.258 24.8279 100.258 25.6399C100.258 26.452 99.9182 28.4491 99.2379 31.6313C98.5795 34.7915 98.2503 36.7447 98.2503 37.4909C98.2503 38.2371 98.4588 38.8296 98.8758 39.2686C99.2928 39.6855 99.8414 39.894 100.522 39.894C101.202 39.894 101.926 39.6307 102.694 39.104C103.463 38.5553 104.088 37.7872 104.571 36.7996C104.878 35.022 105.482 32.2128 106.381 28.3723L104.406 25.7387C106.623 24.1366 108.73 23.3356 110.727 23.3356C111.714 23.3356 112.417 23.5221 112.834 23.8952C113.273 24.2464 113.492 24.795 113.492 25.5412C113.492 26.2654 113.086 28.3613 112.274 31.8288C111.484 35.2963 111.089 37.7652 111.089 39.2356C111.089 40.6841 111.429 41.7046 112.109 42.2971C110.88 43.3725 109.586 43.9102 108.225 43.9102C106.886 43.9102 105.921 43.6139 105.328 43.0214C104.735 42.4288 104.439 41.6497 104.439 40.6841L104.11 40.5195C103.386 41.5729 102.376 42.4069 101.081 43.0214C99.8085 43.6139 98.4369 43.9102 96.9665 43.9102Z" stroke="#F7FEFF" stroke-width="12" mask="url(#path-3-outside-1_488_156)"/>
<path d="M119.67 22.6114L117.827 19.9778C120.57 18.3757 122.732 17.5747 124.312 17.5747C125.211 17.5747 125.848 17.7613 126.221 18.1343C126.594 18.4855 126.781 19.1658 126.781 20.1753C126.781 21.1629 126.287 23.972 125.299 28.6027C124.334 33.2333 123.851 36.4814 123.851 38.3468C123.851 40.2122 124.191 41.529 124.871 42.2971C123.335 43.3725 121.941 43.9102 120.691 43.9102C119.44 43.9102 118.518 43.5042 117.925 42.6922C117.355 41.8582 117.069 40.717 117.069 39.2686C117.069 37.8201 117.475 34.8574 118.287 30.3803C119.099 25.9033 119.56 23.3136 119.67 22.6114Z" stroke="#F7FEFF" stroke-width="12" mask="url(#path-3-outside-1_488_156)"/>
<path d="M12.0294 52.8244C12.0294 50.9763 12.6647 49.4689 13.9353 48.3023C15.2059 47.1357 16.8056 46.5524 18.7346 46.5524C19.7279 46.5524 20.5134 46.743 21.0909 47.1242C21.6685 47.4938 21.9572 47.9616 21.9572 48.5276C21.9572 49.0935 21.7609 49.5267 21.3681 49.827C20.987 50.1273 20.5654 50.2775 20.1033 50.2775C19.6529 50.2775 19.237 50.1562 18.8559 49.9136C18.4863 49.6711 18.1975 49.3188 17.9896 48.8568C17.2619 49.1571 16.6844 49.6884 16.257 50.4507C15.8412 51.2131 15.6332 51.9754 15.6332 52.7378C15.6332 53.5001 15.7834 54.1181 16.0837 54.5917C16.384 55.0652 16.7768 55.302 17.2619 55.302C17.747 55.302 18.1397 55.1403 18.4401 54.8169C18.7519 54.4935 18.9079 54.0141 18.9079 53.3788C20.5942 53.3788 21.4374 53.7773 21.4374 54.5743C21.4374 55.2558 21.0101 55.8969 20.1553 56.4975C19.3006 57.0866 18.1744 57.3811 16.7768 57.3811C15.3791 57.3811 14.2356 56.9653 13.3462 56.1337C12.4684 55.2905 12.0294 54.1874 12.0294 52.8244Z" stroke="#F7FEFF" stroke-width="12" mask="url(#path-3-outside-1_488_156)"/>
<path d="M26.1622 57.3811C25.1457 57.3811 24.4353 57.1328 24.0311 56.6361C23.6268 56.1394 23.4247 55.5157 23.4247 54.7649C23.4247 54.0026 23.5517 52.963 23.8058 51.6462C24.0599 50.3295 24.187 49.3765 24.187 48.7875C24.187 48.1984 24.0657 47.7363 23.8231 47.4014C24.8974 46.8354 25.8041 46.5524 26.5433 46.5524C27.0169 46.5524 27.3576 46.6506 27.5656 46.8469C27.785 47.0318 27.8948 47.3378 27.8948 47.7652C27.8948 48.1926 27.7157 49.2437 27.3576 50.9185C27.0111 52.5818 26.8379 53.6098 26.8379 54.0026C26.8379 54.3953 26.9476 54.7072 27.1671 54.9382C27.3865 55.1576 27.6753 55.2674 28.0334 55.2674C28.3914 55.2674 28.7726 55.1288 29.1769 54.8515C29.5811 54.5628 29.9103 54.1585 30.1645 53.6387C30.3262 52.7031 30.6438 51.2246 31.1174 49.2033L30.0778 47.8172C31.2444 46.974 32.3533 46.5524 33.4044 46.5524C33.9242 46.5524 34.2938 46.6506 34.5133 46.8469C34.7443 47.0318 34.8598 47.3205 34.8598 47.7132C34.8598 48.0944 34.6461 49.1975 34.2187 51.0225C33.8029 52.8475 33.595 54.147 33.595 54.9208C33.595 55.6832 33.774 56.2203 34.1321 56.5322C33.4853 57.0981 32.8038 57.3811 32.0876 57.3811C31.3831 57.3811 30.8748 57.2252 30.563 56.9133C30.2511 56.6015 30.0952 56.1914 30.0952 55.6832L29.9219 55.5966C29.5407 56.151 29.0094 56.5899 28.3279 56.9133C27.658 57.2252 26.936 57.3811 26.1622 57.3811Z" stroke="#F7FEFF" stroke-width="12" mask="url(#path-3-outside-1_488_156)"/>
<path d="M38.4752 57.3811C37.7938 57.3811 37.2913 57.2021 36.9679 56.844C36.6445 56.486 36.4828 56.0124 36.4828 55.4233C36.4828 54.8342 36.5983 53.8755 36.8293 52.5472C37.0718 51.2189 37.3202 50.006 37.5743 48.9087L36.6733 47.5227C37.8169 46.8758 38.8737 46.5524 39.844 46.5524C40.8142 46.5524 41.2994 46.9913 41.2994 47.8692C41.2994 48.4467 41.1665 49.0358 40.9009 49.6364L41.0741 49.7231C42.3101 47.6093 43.8809 46.5524 45.7868 46.5524C47.1844 46.5524 47.8832 47.2512 47.8832 48.6488C47.8832 49.2495 47.71 50.2659 47.3635 51.6982C47.0285 53.1305 46.861 54.2105 46.861 54.9382C46.861 55.6659 46.9823 56.1972 47.2249 56.5322C46.6127 57.0981 45.9658 57.3811 45.2843 57.3811C43.956 57.3811 43.2919 56.665 43.2919 55.2327C43.2919 54.7014 43.4651 53.8004 43.8116 52.5299C44.1582 51.2593 44.3314 50.4334 44.3314 50.0522C44.3314 49.5325 44.1351 49.2726 43.7423 49.2726C43.4189 49.2726 43.0493 49.417 42.6335 49.7057C42.2176 49.9829 41.8134 50.3641 41.4207 50.8492C41.0395 51.3228 40.7161 51.9292 40.4504 52.6685C40.1847 53.3962 40.0519 54.1412 40.0519 54.9035C40.0519 55.6543 40.1732 56.1972 40.4157 56.5322C39.8036 57.0981 39.1567 57.3811 38.4752 57.3811Z" stroke="#F7FEFF" stroke-width="12" mask="url(#path-3-outside-1_488_156)"/>
<path d="M57.981 47.8692C58.6279 47.8692 59.1823 48.1291 59.6443 48.6488C60.1179 49.1686 60.3547 49.9252 60.3547 50.9185C60.3547 51.9004 60.1814 52.8129 59.8349 53.6561C59.4884 54.4877 59.0321 55.1692 58.4662 55.7005C57.9002 56.2318 57.2591 56.6477 56.543 56.948C55.8268 57.2368 55.0934 57.3811 54.3426 57.3811C52.8294 57.3811 51.634 56.9653 50.7561 56.1337C49.8783 55.302 49.4393 54.1989 49.4393 52.8244C49.4393 50.9648 50.0342 49.4574 51.2239 48.3023C52.4252 47.1357 53.9499 46.5524 55.798 46.5524C56.2138 46.5524 56.6296 46.5986 57.0454 46.691C57.1725 47.0722 57.2418 47.5053 57.2533 47.9905C57.4959 47.9096 57.7385 47.8692 57.981 47.8692ZM55.8499 50.2775C55.8499 49.9541 55.925 49.5902 56.0752 49.186C56.2369 48.7817 56.491 48.4583 56.8375 48.2157C55.3128 48.5391 54.2617 49.1571 53.6842 50.0696C53.1875 50.855 52.9392 51.6636 52.9392 52.4952C52.9392 53.3269 53.1067 53.9968 53.4416 54.505C53.7882 55.0017 54.2271 55.25 54.7584 55.25C55.9366 55.25 56.7682 54.4819 57.2533 52.9457C56.3177 52.3682 55.8499 51.4788 55.8499 50.2775Z" stroke="#F7FEFF" stroke-width="12" mask="url(#path-3-outside-1_488_156)"/>
<path d="M68.4432 54.8169L68.27 54.7303C67.9581 55.5619 67.5076 56.2145 66.9185 56.6881C66.341 57.1501 65.6942 57.3811 64.978 57.3811C63.9962 57.3811 63.2108 57.0115 62.6217 56.2723C62.0326 55.533 61.7381 54.5455 61.7381 53.3095C61.7381 51.3921 62.3791 49.7866 63.6613 48.4929C64.9549 47.1992 66.5605 46.5524 68.4779 46.5524C68.9746 46.5524 69.4308 46.5986 69.8466 46.691C69.9159 47.0144 69.9564 47.2974 69.9679 47.54C70.5454 47.1704 71.1403 46.9855 71.7525 46.9855C72.5957 46.9855 73.0173 47.4418 73.0173 48.3543C73.0173 48.6777 72.8325 49.6537 72.4628 51.2824C72.1048 52.911 71.9257 54.1181 71.9257 54.9035C71.9257 55.689 72.1048 56.2318 72.4628 56.5322C71.816 57.0981 71.1403 57.3811 70.4357 57.3811C69.7427 57.3811 69.2344 57.1732 68.911 56.7574C68.5992 56.3416 68.4432 55.6947 68.4432 54.8169ZM64.9954 52.4606C64.9954 53.0265 65.1109 53.4655 65.3419 53.7773C65.5844 54.0776 65.9252 54.2278 66.3641 54.2278C66.803 54.2278 67.2362 54.0661 67.6636 53.7427C68.0909 53.4193 68.449 52.9746 68.7378 52.4086C68.8417 51.242 69.067 49.8617 69.4135 48.2677C68.2469 48.2677 67.2188 48.6893 66.3294 49.5325C65.44 50.3757 64.9954 51.3517 64.9954 52.4606Z" stroke="#F7FEFF" stroke-width="12" mask="url(#path-3-outside-1_488_156)"/>
<path d="M80.2825 48.8568C79.8552 48.9838 79.5144 49.1686 79.2603 49.4112C79.0062 49.6422 78.781 49.9772 78.5846 50.4161C80.5367 50.7049 81.9112 51.1207 82.7082 51.6636C83.5052 52.2064 83.9037 52.9803 83.9037 53.9852C83.9037 54.6205 83.7246 55.175 83.3666 55.6485C83.0085 56.1106 82.558 56.4629 82.0151 56.7054C80.9525 57.1559 79.9072 57.3811 78.8791 57.3811C75.9568 57.3811 74.4957 56.7516 74.4957 55.4926C74.4957 54.8573 74.7787 54.222 75.3446 53.5867C75.6334 53.991 76.0666 54.3375 76.6441 54.6263C77.2332 54.9151 77.8049 55.0595 78.3594 55.0595C79.3181 55.0595 79.8956 54.6379 80.092 53.7947C78.3363 53.5867 77.0657 53.194 76.2803 52.6165C75.4948 52.039 75.1021 51.2246 75.1021 50.1735C75.1021 49.3419 75.3735 48.6431 75.9164 48.0771C76.4708 47.5111 77.1523 47.1184 77.9609 46.8989C78.781 46.6679 79.6992 46.5524 80.7157 46.5524C81.7437 46.5524 82.5869 46.7488 83.2453 47.1415C83.9152 47.5227 84.2502 47.9905 84.2502 48.5449C84.2502 49.0993 84.0538 49.5267 83.6611 49.827C83.2799 50.1273 82.8583 50.2775 82.3963 50.2775C81.9458 50.2775 81.53 50.1562 81.1488 49.9136C80.7792 49.6711 80.4905 49.3188 80.2825 48.8568Z" stroke="#F7FEFF" stroke-width="12" mask="url(#path-3-outside-1_488_156)"/>
<path d="M86.0968 50.6933C86.0159 50.3699 85.9755 50.0696 85.9755 49.7924C85.9755 49.2264 86.143 48.799 86.4779 48.5102C86.8129 48.2215 87.2461 48.0771 87.7774 48.0771C87.7774 47.4765 87.6215 46.8238 87.3096 46.1193C87.8756 45.7034 88.3896 45.3916 88.8516 45.1836C89.3252 44.9642 89.8218 44.8545 90.3416 44.8545C90.8614 44.8545 91.2195 44.9526 91.4158 45.149C91.6238 45.3338 91.7277 45.6226 91.7277 46.0153C91.7277 46.408 91.6469 47.0202 91.4851 47.8518C91.9472 47.7825 92.415 47.6844 92.8885 47.5573C92.9694 47.7999 93.0098 48.1117 93.0098 48.4929C93.0098 48.8741 92.8597 49.2322 92.5593 49.5671C92.2706 49.8905 91.8432 50.0522 91.2772 50.0522H91.0173C90.6015 51.935 90.3936 53.3846 90.3936 54.4011C90.3936 55.4175 90.5726 56.1279 90.9307 56.5322C90.2839 57.0981 89.5966 57.3811 88.8689 57.3811C88.1412 57.3811 87.6157 57.1674 87.2923 56.7401C86.9804 56.3011 86.8245 55.6254 86.8245 54.7129C86.8245 54.1585 87.0266 52.7031 87.4309 50.3468C86.9688 50.4276 86.5241 50.5432 86.0968 50.6933Z" stroke="#F7FEFF" stroke-width="12" mask="url(#path-3-outside-1_488_156)"/>
<path d="M98.9108 57.3811C97.3284 57.3811 96.104 56.9711 95.2377 56.151C94.383 55.3309 93.9556 54.222 93.9556 52.8244C93.9556 50.9648 94.5909 49.4574 95.8614 48.3023C97.1436 47.1357 98.7491 46.5524 100.678 46.5524C101.752 46.5524 102.567 46.795 103.121 47.2801C103.675 47.7537 103.953 48.3832 103.953 49.1686C103.953 50.2428 103.427 51.138 102.376 51.8541C101.336 52.5587 99.7251 52.9168 97.5421 52.9284C97.5767 53.6676 97.7442 54.2509 98.0445 54.6783C98.3448 55.0941 98.7202 55.302 99.1707 55.302C99.6212 55.302 100.008 55.1519 100.332 54.8515C100.667 54.5512 100.834 54.0603 100.834 53.3788C102.52 53.3788 103.364 53.7773 103.364 54.5743C103.364 55.2558 102.948 55.8969 102.116 56.4975C101.284 57.0866 100.216 57.3811 98.9108 57.3811ZM100.384 48.5795C99.7944 48.5795 99.2516 48.8741 98.7549 49.4632C98.2697 50.0522 97.9175 50.7453 97.698 51.5423C98.8531 51.4499 99.7194 51.19 100.297 50.7626C100.886 50.3237 101.181 49.8617 101.181 49.3765C101.181 49.1455 101.105 48.9549 100.955 48.8048C100.817 48.6546 100.626 48.5795 100.384 48.5795Z" stroke="#F7FEFF" stroke-width="12" mask="url(#path-3-outside-1_488_156)"/>
<path d="M105.516 55.2327C105.516 54.7707 105.631 53.8755 105.862 52.5472C106.105 51.2189 106.353 50.006 106.607 48.9087L105.707 47.5227C107.15 46.8758 108.161 46.5524 108.739 46.5524C109.328 46.5524 109.622 46.922 109.622 47.6613C109.622 48.0655 109.432 48.9087 109.05 50.1909L109.224 50.2775C110.055 47.7941 111.089 46.5524 112.325 46.5524C112.891 46.5524 113.324 46.7257 113.624 47.0722C113.925 47.4187 114.075 47.8056 114.075 48.233C114.075 48.8683 113.838 49.4112 113.365 49.8617C112.891 50.3121 112.181 50.5374 111.234 50.5374C109.801 50.5374 109.085 52.0101 109.085 54.9555C109.085 55.6716 109.206 56.1972 109.449 56.5322C108.733 57.0981 108.074 57.3811 107.474 57.3811C106.169 57.3811 105.516 56.665 105.516 55.2327Z" stroke="#F7FEFF" stroke-width="12" mask="url(#path-3-outside-1_488_156)"/>
<path d="M120.283 43.8149C120.283 44.2538 120.052 44.635 119.59 44.9584C119.128 45.2703 118.602 45.4262 118.013 45.4262C117.424 45.4262 116.956 45.3107 116.61 45.0797C116.275 44.8487 116.107 44.5368 116.107 44.1441C116.107 43.6128 116.356 43.1969 116.852 42.8966C117.349 42.5963 117.875 42.4461 118.429 42.4461C118.983 42.4461 119.428 42.5617 119.763 42.7927C120.11 43.0237 120.283 43.3644 120.283 43.8149ZM116.904 57.3811C116.188 57.3811 115.668 57.2021 115.345 56.844C115.021 56.486 114.86 55.9431 114.86 55.2154C114.86 54.4761 115.229 52.5068 115.969 49.3072L114.998 47.8518C116.442 46.9856 117.58 46.5524 118.412 46.5524C118.885 46.5524 119.22 46.6564 119.417 46.8643C119.613 47.0606 119.711 47.384 119.711 47.8345C119.711 48.0078 119.497 49.0242 119.07 50.8839C118.643 52.7436 118.429 54.0719 118.429 54.8689C118.429 55.6659 118.608 56.2203 118.966 56.5322C118.319 57.0981 117.632 57.3811 116.904 57.3811Z" stroke="#F7FEFF" stroke-width="12" mask="url(#path-3-outside-1_488_156)"/>
<path d="M127 43.8149C127 44.2538 126.769 44.635 126.307 44.9584C125.845 45.2703 125.319 45.4262 124.73 45.4262C124.141 45.4262 123.673 45.3107 123.327 45.0797C122.992 44.8487 122.824 44.5368 122.824 44.1441C122.824 43.6128 123.073 43.1969 123.569 42.8966C124.066 42.5963 124.592 42.4461 125.146 42.4461C125.701 42.4461 126.145 42.5617 126.48 42.7927C126.827 43.0237 127 43.3644 127 43.8149ZM123.621 57.3811C122.905 57.3811 122.386 57.2021 122.062 56.844C121.739 56.486 121.577 55.9431 121.577 55.2154C121.577 54.4761 121.947 52.5068 122.686 49.3072L121.716 47.8518C123.159 46.9856 124.297 46.5524 125.129 46.5524C125.602 46.5524 125.937 46.6564 126.134 46.8643C126.33 47.0606 126.428 47.384 126.428 47.8345C126.428 48.0078 126.215 49.0242 125.787 50.8839C125.36 52.7436 125.146 54.0719 125.146 54.8689C125.146 55.6659 125.325 56.2203 125.683 56.5322C125.036 57.0981 124.349 57.3811 123.621 57.3811Z" stroke="#F7FEFF" stroke-width="12" mask="url(#path-3-outside-1_488_156)"/>
<path d="M43.5 14C52 8.00003 74.9 3.24249e-05 98.5 16" stroke="#292B33" stroke-width="3.5" stroke-linecap="round"/>
<path d="M134.155 57.9692C138.504 52.4268 134.155 29.0137 131.437 18L126 35.5865C126.906 45.3567 129.806 63.5116 134.155 57.9692Z" fill="white"/>
</svg>
