<svg width="34" height="46" viewBox="0 0 34 46" fill="none" xmlns="http://www.w3.org/2000/svg">
<path d="M13.0746 24.4017V23.8075M13.0746 23.2134H9.04979C5.02507 22.8172 3.59389 20.7574 3.23612 17.2715C2.78892 12.9141 4.13053 6.97217 13.0746 5.78379C17.0995 5.25562 25.8648 5.46689 28.7269 10.5373C30.0685 13.1781 31.589 19.1728 26.9381 22.0249C25.8946 22.5531 23.0921 23.5302 20.23 23.2133M13.0746 23.2134L20.23 23.2133M13.0746 23.2134V23.8075M20.23 23.2133V23.8075M20.23 24.4017V23.8075M13.0746 23.8075L20.23 23.8075" stroke="#039B6E" stroke-width="2" stroke-linejoin="round"/>
<path d="M9.49707 28.3626C9.49707 26.9102 9.94428 24.7975 13.0747 24.4014H21.1244C22.466 24.4014 23.8076 26.0651 23.8076 27.9665" stroke="#039B6E" stroke-width="2" stroke-linejoin="round"/>
<path d="M30.5155 28.3625H3.23602C1.4472 28.3625 1 29.683 1 30.3432L1.89441 42.227C1.89441 43.8115 2.34161 44.9999 4.13043 44.9999H28.7267C30.8733 44.683 31.4099 43.0192 31.4099 42.227L32.3043 31.5316C32.3043 29.1548 31.4099 28.3625 30.5155 28.3625Z" stroke="#039B6E" stroke-width="2" stroke-linejoin="round"/>
<path d="M19.6768 36.6815C19.6768 37.7688 18.6402 38.8505 17.0991 38.8505C15.5581 38.8505 14.5215 37.7688 14.5215 36.6815C14.5215 35.5941 15.5581 34.5125 17.0991 34.5125C18.6402 34.5125 19.6768 35.5941 19.6768 36.6815Z" stroke="#039B6E" stroke-width="2"/>
<path d="M9.76805 16.6306C7.17158 16.6306 6.52246 15.1919 6.52246 14.3288C6.52246 13.1779 8.14526 12.027 9.36235 12.027L23.1561 11.7393C25.996 11.7393 26.4017 14.041 26.4017 14.041C26.4017 15.1919 25.5903 16.6306 23.5618 16.6306H9.76805Z" fill="#039B6E" stroke="#039B6E" stroke-width="1.5" stroke-linejoin="round"/>
<path d="M13.808 14.6982C13.808 15.4606 13.0895 16.1788 12.072 16.1788C11.0545 16.1788 10.3359 15.4606 10.3359 14.6982C10.3359 13.9357 11.0545 13.2175 12.072 13.2175C13.0895 13.2175 13.808 13.9357 13.808 14.6982Z" stroke="white"/>
<ellipse cx="21.2651" cy="14.5914" rx="0.552201" ry="0.48913" fill="white"/>
<ellipse cx="11.7133" cy="14.576" rx="0.552201" ry="0.48913" fill="white"/>
<path d="M22.6439 14.6982C22.6439 15.4606 21.9254 16.1788 20.9079 16.1788C19.8904 16.1788 19.1719 15.4606 19.1719 14.6982C19.1719 13.9357 19.8904 13.2175 20.9079 13.2175C21.9254 13.2175 22.6439 13.9357 22.6439 14.6982Z" stroke="white"/>
<path d="M13.5215 20.0442C14.565 20.9685 17.278 22.2625 19.7824 20.0442" stroke="#039B6E" stroke-width="2" stroke-linecap="round" stroke-linejoin="round"/>
<path d="M16.6523 4.99124V3.40674" stroke="#039B6E" stroke-width="1.25" stroke-linejoin="round"/>
<path d="M18.3881 1.98063C18.3881 2.74309 17.6695 3.46126 16.652 3.46126C15.6345 3.46126 14.916 2.74309 14.916 1.98063C14.916 1.21818 15.6345 0.5 16.652 0.5C17.6695 0.5 18.3881 1.21818 18.3881 1.98063Z" stroke="#039B6E"/>
</svg>
