<svg width="48" height="47" viewBox="0 0 48 47" fill="none" xmlns="http://www.w3.org/2000/svg">
<path d="M1.98582 21.4091C-0.0141751 24.2664 1.48582 27.0217 2.48582 28.0421L22.9854 8.14316L43.9854 28.0422C46.7854 26.0012 46.152 23.7902 45.4854 22.9398L25.9854 4.57152C23.5854 2.12241 20.652 3.55106 19.4854 4.57152C14.4855 8.99352 3.98583 18.5518 1.98582 21.4091Z" stroke="black" stroke-width="2"/>
<path d="M6.98535 29.0628L22.9854 13.2456L39.9854 29.0628V41.8185C37.1854 45.9004 31.8187 46.2405 29.4854 45.9004V35.6957H17.4854V45.9004C9.48535 45.9004 7.15202 42.4988 6.98535 40.7981V29.0628Z" stroke="black" stroke-width="2"/>
<path d="M10.7 6.04892C10.7 7.33096 9.68307 8.35984 8.44139 8.35984C7.19971 8.35984 6.18281 7.33096 6.18281 6.04892C6.18281 4.76687 7.19971 3.73799 8.44139 3.73799C9.68307 3.73799 10.7 4.76687 10.7 6.04892Z" stroke="black" stroke-width="0.6"/>
<path d="M8.36311 1.07208L7.64351 2.94868C7.56349 3.03026 8.74992 3.03026 9.00276 3.03026C9.0815 3.03026 9.24262 3.00307 9.24262 2.94867C9.02941 2.37754 8.58699 1.20263 8.52302 1.07208C8.45906 0.941535 8.38976 1.01769 8.36311 1.07208Z" stroke="black" stroke-width="0.6"/>
<path d="M11.8937 2.53404L10.0992 3.37531C9.98612 3.37735 10.8402 4.21769 11.0222 4.39677C11.0789 4.45255 11.2134 4.54709 11.2504 4.50793C11.4854 3.94575 11.966 2.78659 12.0088 2.6473C12.0515 2.50802 11.9498 2.51376 11.8937 2.53404Z" stroke="black" stroke-width="0.6"/>
<path d="M13.4482 5.97449L11.5608 5.38187C11.4751 5.30651 11.5634 6.51385 11.5823 6.77115C11.5881 6.85129 11.6267 7.01322 11.6798 7.00918C12.2221 6.7497 13.3373 6.21203 13.4601 6.13722C13.583 6.06242 13.5034 5.99757 13.4482 5.97449Z" stroke="black" stroke-width="0.6"/>
<path d="M12.0014 9.60874L11.2552 7.74298C11.2581 7.62759 10.3985 8.46209 10.2153 8.63993C10.1582 8.69531 10.0599 8.82835 10.0966 8.86776C10.6369 9.13158 11.751 9.67162 11.8855 9.72122C12.02 9.77081 12.0188 9.66689 12.0014 9.60874Z" stroke="black" stroke-width="0.6"/>
<path d="M8.5238 11.1215L9.27147 9.25632C9.35271 9.176 8.16642 9.15746 7.91361 9.15351C7.83487 9.15228 7.67336 9.17696 7.67255 9.23134C7.87717 9.80574 8.30191 10.9874 8.3639 11.119C8.4259 11.2505 8.49633 11.1754 8.5238 11.1215Z" stroke="black" stroke-width="0.6"/>
<path d="M4.97217 9.7201L6.75866 8.86138C6.87173 8.85823 6.00981 8.02626 5.82612 7.84896C5.76891 7.79374 5.63355 7.70051 5.59692 7.74003C5.36721 8.30447 4.89744 9.46827 4.856 9.60796C4.81456 9.74765 4.91618 9.74092 4.97217 9.7201Z" stroke="black" stroke-width="0.6"/>
<path d="M4.82814 2.67832L5.69358 4.48965C5.69818 4.60498 6.50181 3.71432 6.67307 3.52451C6.72641 3.46539 6.81594 3.32601 6.77673 3.28917C6.22057 3.06237 5.07389 2.59868 4.93645 2.55827C4.79901 2.51786 4.80698 2.62147 4.82814 2.67832Z" stroke="black" stroke-width="0.6"/>
<path d="M3.57143 6.1656L5.42291 6.86643C5.50427 6.94663 5.48317 5.73612 5.47867 5.47814C5.47727 5.3978 5.44776 5.23389 5.39446 5.23486C4.83866 5.46256 3.69536 5.93486 3.56859 6.00244C3.44182 6.07002 3.51766 6.13937 3.57143 6.1656Z" stroke="black" stroke-width="0.6"/>
</svg>
