<svg width="48" height="47" viewBox="0 0 48 47" fill="none" xmlns="http://www.w3.org/2000/svg">
<path d="M3.86076 4.70253C2.62025 4.93038 2.10338 5.36709 2 5.55696C4.17088 5.84177 4.48101 6.12658 3.24051 8.40506C2.2481 10.2278 2.62025 11.2532 2.93038 11.538C3.86076 12.3924 4.89451 12.1076 5.41139 11.538L5.72152 23.2152C5.96962 25.4937 6.6519 27.0127 6.96202 27.4873C8.94683 29.7658 15.0253 33.3734 17.8164 34.8924C19.8013 36.0316 21.3312 39.1646 21.8481 40.5886C21.6 42.4114 20.711 43.2468 20.2975 43.4367C16.3278 43.2089 14.3017 44.1013 13.7848 44.5759C16.0177 43.8924 17.6097 44.2911 18.1266 44.5759C14.2797 44.5759 13.2157 45.5253 13.1646 46C13.6608 45.0886 19.3671 45.2405 22.1582 45.4304C23.1506 45.4304 22.9852 44.2911 22.7785 43.7215C24.019 44.1772 24.5359 43.9114 24.6392 43.7215C23.1506 43.2658 23.6055 40.6835 24.019 39.4494C26.5 37.6266 27.1202 34.7025 27.1202 33.4683C33.5709 30.2785 33.3228 23.7848 32.3924 20.9367C34.3772 22.0759 34.6666 25.7785 34.5633 27.4873C40.7658 25.2089 39.2152 19.7025 37.6645 17.2342C40.8899 17.462 42.3164 20.9367 42.6266 22.6456C45.1076 19.4557 43.2468 15.2405 42.0063 13.5316C44.2392 13.9873 46.2447 16.9494 46.9683 18.3734C47.4645 12.4494 42.0063 9.44937 39.2152 8.68987C29.7873 6.86709 26.6034 14.5759 26.1899 18.6582C25.1975 17.9747 20.1941 17.8038 17.8164 17.8038C14.7152 16.9494 14.0949 13.2468 13.7848 11.538C13.5367 10.1709 11.2004 7.17089 10.0633 5.84177C12.2962 5.61392 13.8882 3.65823 14.4051 2.70886C13.4127 3.16456 11.3038 3.08861 10.3734 2.99367C9.87721 2.76582 12.0865 1.91546 12.5 1.53571C11.7557 1.30787 10.1667 1.53571 10.1667 1.53571C7.83333 2.07143 7.16877 2.42405 6.6519 2.42405C6.15569 2.42405 7.27215 1.47468 7.8924 1C2.68228 1.91139 3.03375 3.8481 3.86076 4.70253Z" fill="#FFF8F8" stroke="black" stroke-width="1.8"/>
<path d="M13.161 21.2219C13.0576 24.4498 15.2079 30.4498 24.6357 28.627C24.3844 28.1713 22.4636 27.4877 21.5346 27.2029C22.5683 27.2979 24.6357 27.7156 24.6357 28.627C25.8763 28.4371 28.6055 27.6017 29.5979 25.7789C28.7709 25.589 26.8067 25.2662 25.5662 25.4941C26.1865 25.1143 27.365 24.127 27.1168 23.2156C25.9797 23.3105 23.5814 23.5574 23.0852 23.7852C23.292 23.2156 23.6434 22.0194 23.3953 21.7915C22.7751 21.8865 21.4105 22.2472 20.9143 22.9308C20.6662 22.2472 22.6717 21.6966 23.7055 21.5067C23.9514 21.7325 23.8116 22.7223 23.7084 23.2023C23.8032 22.9855 26.2111 22.9308 27.4271 22.9308C27.6752 23.6143 26.9102 24.7346 26.4967 25.2093C26.7448 25.0364 29.0811 25.3271 30.2182 25.4941C27.4891 29.8232 20.9144 29.7662 18.4334 29.1966C15.0258 28.627 12.7477 23.6903 12.851 21.5067L13.161 21.2219Z" fill="black"/>
<path d="M19.9839 24.6396C20.7076 24.6396 22.2169 24.9245 22.465 26.0637C21.7175 25.1523 20.4995 24.7346 19.9839 24.6396Z" fill="black"/>
<path d="M24.6357 28.627C15.2079 30.4498 13.0576 24.4498 13.161 21.2219L12.851 21.5067C12.7477 23.6903 15.0258 28.627 18.4334 29.1966C20.9144 29.7662 27.4891 29.8232 30.2182 25.4941C29.0811 25.3271 26.7448 25.0364 26.4967 25.2093C26.9102 24.7346 27.6752 23.6143 27.4271 22.9308C26.1866 22.9308 23.7055 22.9877 23.7055 23.2156C23.8089 22.7409 23.9537 21.7346 23.7055 21.5067C22.6717 21.6966 20.6662 22.2472 20.9143 22.9308C21.4105 22.2472 22.7751 21.8865 23.3953 21.7915C23.6434 22.0194 23.292 23.2156 23.0852 23.7852C23.5814 23.5574 25.9797 23.3105 27.1168 23.2156C27.365 24.127 26.1865 25.1143 25.5662 25.4941C26.8067 25.2662 28.7709 25.589 29.5979 25.7789C28.6055 27.6017 25.8763 28.4371 24.6357 28.627ZM24.6357 28.627C24.6357 27.7156 22.5683 27.2979 21.5346 27.2029C22.4636 27.4877 24.3844 28.1713 24.6357 28.627ZM19.9839 24.6396C20.7076 24.6396 22.2169 24.9245 22.465 26.0637C21.7175 25.1523 20.4995 24.7346 19.9839 24.6396Z" stroke="black" stroke-width="1.25"/>
<ellipse cx="6.27384" cy="4.92432" rx="1.1713" ry="1.07568" fill="black"/>
<path fill-rule="evenodd" clip-rule="evenodd" d="M7.39285 4.56329C7.29998 4.74765 7.09677 4.87556 6.86104 4.87556C6.53759 4.87556 6.27539 4.63476 6.27539 4.33772C6.27539 4.12002 6.41623 3.93253 6.61879 3.8479C6.98888 3.95322 7.28046 4.2225 7.39285 4.56329Z" fill="white"/>
<path d="M6.65206 12.6774C7.37569 13.247 8.82294 15.2407 8.82294 18.6584C9.13307 17.1395 9.81535 13.7597 10.0634 12.3926C10.5803 13.5319 11.6141 16.4369 11.6141 18.9433C12.4078 17.0298 13.9062 13.0699 13.8061 11.9486C13.7996 11.9066 13.7925 11.8647 13.785 11.823C13.7949 11.8597 13.8019 11.9017 13.8061 11.9486C14.2283 14.6587 12.5303 17.9192 11.6141 19.2281L10.0634 13.5319L8.82294 19.2281L6.96219 13.5319L5.72168 19.2281L6.65206 12.6774Z" fill="black"/>
<path d="M6.65206 12.6774C7.37569 13.247 8.82294 15.2407 8.82294 18.6584C9.13307 17.1395 9.81535 13.7597 10.0634 12.3926C10.5803 13.5319 11.6141 16.4369 11.6141 18.9433C12.4411 16.9496 14.0331 12.7344 13.785 11.823C14.2812 14.5572 12.5445 17.8989 11.6141 19.2281L10.0634 13.5319L8.82294 19.2281L6.96219 13.5319L5.72168 19.2281L6.65206 12.6774Z" stroke="black" stroke-width="0.6" stroke-linecap="round" stroke-linejoin="round"/>
</svg>
