<svg width="45" height="48" viewBox="0 0 45 48" fill="none" xmlns="http://www.w3.org/2000/svg">
<path d="M3.70886 5.70253C2.56962 5.93038 2.09494 6.36709 2 6.55696C3.99367 6.84177 4.27848 7.12658 3.13924 9.40506C2.22785 11.2278 2.56962 12.2532 2.85443 12.538C3.70886 13.3924 4.65823 13.1076 5.13291 12.538L5.41772 24.2152C5.64557 26.4937 6.27215 28.0127 6.55696 28.4873C8.37975 30.7658 13.962 34.3734 16.5253 35.8924C18.3481 37.0316 19.7532 40.1646 20.2278 41.5886C20 43.4114 19.1835 44.2468 18.8038 44.4367C15.1582 44.2089 13.2975 45.1013 12.8228 45.5759C14.8734 44.8924 16.3354 45.2911 16.8101 45.5759C13.2773 45.5759 12.3001 46.5253 12.2532 47C12.7089 46.0886 17.9494 46.2405 20.5127 46.4304C21.4241 46.4304 21.2722 45.2911 21.0823 44.7215C22.2215 45.1772 22.6962 44.9114 22.7911 44.7215C21.4241 44.2658 21.8418 41.6835 22.2215 40.4494C24.5 38.6266 25.0696 35.7025 25.0696 34.4683C30.9937 31.2785 30.7658 24.7848 29.9114 21.9367C31.7342 23.0759 32 26.7785 31.9051 28.4873C37.6013 26.2089 36.1772 20.7025 34.7532 18.2342C37.7152 18.462 39.0253 21.9367 39.3101 23.6456C41.5886 20.4557 39.8798 16.2405 38.7405 14.5316C40.7911 14.9873 42.6329 17.9494 43.2975 19.3734C43.7532 13.4494 38.7405 10.4494 36.1772 9.68987C27.519 7.86709 24.5949 15.5759 24.2152 19.6582C23.3038 18.9747 18.7089 18.8038 16.5253 18.8038C13.6772 17.9494 13.1076 14.2468 12.8228 12.538C12.5949 11.1709 10.4494 8.17089 9.40506 6.84177C11.4557 6.61392 12.9177 4.65823 13.3924 3.70886C12.481 4.16456 10.5443 4.08861 9.68987 3.99367C9.23418 3.76582 11.2631 2.91546 11.6429 2.53571C10.9593 2.30787 9.5 2.53571 9.5 2.53571C7.35714 3.07143 6.74684 3.42405 6.27215 3.42405C5.81646 3.42405 6.84177 2.47468 7.41139 2C2.62658 2.91139 2.94937 4.8481 3.70886 5.70253Z" fill="#FFF8F8" stroke="#039B6E" stroke-width="1.8"/>
<path d="M12.2497 22.2219C12.1548 25.4498 14.1294 31.4498 22.7877 29.627C22.5569 29.1713 20.7929 28.4877 19.9397 28.2029C20.889 28.2979 22.7877 28.7156 22.7877 29.627C23.927 29.4371 26.4334 28.6017 27.3448 26.7789C26.5853 26.589 24.7815 26.2662 23.6422 26.4941C24.2119 26.1143 25.2941 25.127 25.0663 24.2156C24.022 24.3105 21.8194 24.5574 21.3638 24.7852C21.5536 24.2156 21.8764 23.0194 21.6486 22.7915C21.0789 22.8865 19.8258 23.2472 19.3701 23.9308C19.1422 23.2472 20.984 22.6966 21.9335 22.5067C22.1593 22.7325 22.0308 23.7223 21.9361 24.2023C22.0231 23.9855 24.2345 23.9308 25.3512 23.9308C25.5791 24.6143 24.8765 25.7346 24.4967 26.2093C24.7246 26.0364 26.8702 26.3271 27.9145 26.4941C25.4081 30.8232 19.3702 30.7662 17.0917 30.1966C13.9623 29.627 11.8701 24.6903 11.965 22.5067L12.2497 22.2219Z" fill="#039B6E"/>
<path d="M18.5157 25.6396C19.1802 25.6396 20.5663 25.9245 20.7941 27.0637C20.1077 26.1523 18.9891 25.7346 18.5157 25.6396Z" fill="#039B6E"/>
<path d="M22.7877 29.627C14.1294 31.4498 12.1548 25.4498 12.2497 22.2219L11.965 22.5067C11.8701 24.6903 13.9623 29.627 17.0917 30.1966C19.3702 30.7662 25.4081 30.8232 27.9145 26.4941C26.8702 26.3271 24.7246 26.0364 24.4967 26.2093C24.8765 25.7346 25.5791 24.6143 25.3512 23.9308C24.2119 23.9308 21.9335 23.9877 21.9335 24.2156C22.0284 23.7409 22.1614 22.7346 21.9335 22.5067C20.984 22.6966 19.1422 23.2472 19.3701 23.9308C19.8258 23.2472 21.0789 22.8865 21.6486 22.7915C21.8764 23.0194 21.5536 24.2156 21.3638 24.7852C21.8194 24.5574 24.022 24.3105 25.0663 24.2156C25.2941 25.127 24.2119 26.1143 23.6422 26.4941C24.7815 26.2662 26.5853 26.589 27.3448 26.7789C26.4334 28.6017 23.927 29.4371 22.7877 29.627ZM22.7877 29.627C22.7877 28.7156 20.889 28.2979 19.9397 28.2029C20.7929 28.4877 22.5569 29.1713 22.7877 29.627ZM18.5157 25.6396C19.1802 25.6396 20.5663 25.9245 20.7941 27.0637C20.1077 26.1523 18.9891 25.7346 18.5157 25.6396Z" stroke="#039B6E" stroke-width="1.25"/>
<circle cx="5.92432" cy="5.92432" r="1.07568" fill="#039B6E"/>
<path fill-rule="evenodd" clip-rule="evenodd" d="M6.24126 4.84766C6.58109 4.9529 6.84887 5.22207 6.95218 5.56274C6.86696 5.7473 6.68025 5.87537 6.46362 5.87537C6.16658 5.87537 5.92578 5.63457 5.92578 5.33752C5.92578 5.11978 6.05517 4.93226 6.24126 4.84766Z" fill="white"/>
<path d="M6.2724 13.6774C6.93696 14.247 8.26607 16.2407 8.26607 19.6584C8.55088 18.1395 9.17746 14.7597 9.40531 13.3926C9.87999 14.5319 10.8294 17.4369 10.8294 19.9433C11.5583 18.0298 12.9344 14.0699 12.8425 12.9486C12.8365 12.9066 12.83 12.8647 12.823 12.823C12.8322 12.8597 12.8386 12.9017 12.8425 12.9486C13.2302 15.6587 11.6707 18.9192 10.8294 20.2281L9.40531 14.5319L8.26607 20.2281L6.55721 14.5319L5.41797 20.2281L6.2724 13.6774Z" fill="#039B6E" stroke="#039B6E" stroke-width="0.6" stroke-linecap="round" stroke-linejoin="round"/>
</svg>
