<svg width="57" height="47" viewBox="0 0 57 47" fill="none" xmlns="http://www.w3.org/2000/svg">
<path d="M1 42.187H4.43169M55.5258 42.187H52.0941M52.0941 42.187H4.43169M52.0941 42.187C51.1011 35.8565 45.1379 23.4164 29.2324 23.122M4.43169 42.187C6.98393 26.0227 19.4005 22.6668 26.547 22.9895M10.1512 39.1366C11.168 35.1965 15.6419 27.3163 25.4031 27.3163M26.547 22.9895C27.0878 23.0139 27.5984 23.0594 28.0722 23.122C28.4647 23.1149 28.8514 23.1149 29.2324 23.122M26.547 22.9895C26.0386 21.7627 24.7168 19.2328 23.4967 18.9277H33.0291C31.6419 19.5632 28.9403 21.2917 29.2324 23.122" stroke="#039B6E" stroke-width="2" stroke-linecap="round"/>
<path d="M6.33789 42.187L9.38828 46H47.1369L50.5686 42.187" stroke="#039B6E" stroke-width="2"/>
<path d="M15.043 4.81299C14.1533 5.82979 12.679 8.3972 13.8991 10.5325C15.1193 12.6678 15.9325 13.9642 16.1866 14.3455C16.5681 14.981 16.6448 16.6333 13.8991 18.1585" stroke="#039B6E" stroke-width="2" stroke-linecap="round"/>
<path d="M28.4708 1C27.5811 2.0168 26.1067 4.58421 27.3269 6.71949C28.547 8.85476 29.3602 10.1512 29.6143 10.5325C29.9958 11.168 30.0725 12.8203 27.3269 14.3455" stroke="#039B6E" stroke-width="2" stroke-linecap="round"/>
<path d="M42.1973 4.81299C41.3076 5.82979 39.8333 8.3972 41.0534 10.5325C42.2736 12.6678 43.0868 13.9642 43.3409 14.3455C43.7224 14.981 43.7991 16.6333 41.0534 18.1585" stroke="#039B6E" stroke-width="2" stroke-linecap="round"/>
</svg>
