<svg width="41" height="46" viewBox="0 0 41 46" fill="none" xmlns="http://www.w3.org/2000/svg">
<path d="M9.46558 22.582C6.64372 23.0957 1 22.3971 1 15.493C1.10451 13.3355 2.75582 9.20534 8.52496 9.94507C8.94301 7.06837 11.7858 1.25334 19.8124 1.00676C21.5891 0.904024 25.9578 1.93142 29.2186 6.86293C32.2495 6.14377 38.6248 6.49312 39.879 13.6438C40.4015 16.3149 39.5027 21.8423 31.7269 22.582M16.0499 13.952L14.1687 15.8013L14.7958 17.3424L14.1687 18.8835H12.601V21.6574L14.1687 21.9657L14.7958 23.5068L14.1687 25.0479L15.7364 26.8972L17.6176 25.6643L19.1853 26.8972L19.4989 28.4383H21.6936L22.6343 26.2807L23.8884 25.9725L25.1426 26.8972L27.0238 25.0479L26.0832 23.1985L27.0238 21.6574H28.278V18.8835H26.7103L26.0832 17.0342L27.0238 15.4931L25.1426 13.952L23.5749 14.8766L22.3207 14.2602L22.0072 12.7191H19.4989L18.5582 14.2602L17.3041 14.8766L16.0499 13.952Z" stroke="#039B6E" stroke-width="1.6" stroke-linejoin="round"/>
<path d="M11.3473 26.2739C11.8699 27.6095 11.4727 30.5273 8.21191 31.5136M16.991 30.589V42.3013M23.8889 30.589V35.8287M29.8462 26.2739V32.1301C29.9507 33.1575 30.8495 35.0273 33.6087 34.2876" stroke="#039B6E" stroke-width="1.5" stroke-linejoin="round"/>
<path d="M8.02335 31.514C8.02335 32.4214 7.27267 33.1715 6.32857 33.1715C5.38447 33.1715 4.63379 32.4214 4.63379 31.514C4.63379 30.6066 5.38447 29.8564 6.32857 29.8564C7.27267 29.8564 8.02335 30.6066 8.02335 31.514Z" stroke="#039B6E"/>
<path d="M36.87 33.9796C36.87 34.887 36.1194 35.6371 35.1752 35.6371C34.2311 35.6371 33.4805 34.887 33.4805 33.9796C33.4805 33.0722 34.2311 32.322 35.1752 32.322C36.1194 32.322 36.87 33.0722 36.87 33.9796Z" stroke="#039B6E"/>
<path d="M25.5839 37.6778C25.5839 38.5852 24.8332 39.3353 23.8891 39.3353C22.945 39.3353 22.1943 38.5852 22.1943 37.6778C22.1943 36.7704 22.945 36.0203 23.8891 36.0203C24.8332 36.0203 25.5839 36.7704 25.5839 37.6778Z" stroke="#039B6E"/>
<path d="M18.6855 43.8426C18.6855 44.75 17.9348 45.5001 16.9907 45.5001C16.0466 45.5001 15.2959 44.75 15.2959 43.8426C15.2959 42.9352 16.0466 42.1851 16.9907 42.1851C17.9348 42.1851 18.6855 42.9352 18.6855 43.8426Z" stroke="#039B6E"/>
<path d="M24.0174 20.2948C24.0174 22.1096 22.516 23.6099 20.6278 23.6099C18.7396 23.6099 17.2383 22.1096 17.2383 20.2948C17.2383 18.48 18.7396 16.9797 20.6278 16.9797C22.516 16.9797 24.0174 18.48 24.0174 20.2948Z" stroke="#039B6E" stroke-width="2"/>
</svg>
