<svg width="36" height="47" viewBox="0 0 36 47" fill="none" xmlns="http://www.w3.org/2000/svg">
<path d="M18.9451 21.6616C18.9451 21.275 18.6317 20.9616 18.2451 20.9616C17.8585 20.9616 17.5451 21.275 17.5451 21.6616H18.9451ZM18.9451 23.8269V21.6616H17.5451V23.8269H18.9451Z" fill="black"/>
<path d="M23.1395 27.7226C22.7839 29.1084 21.3612 29.0237 20.917 28.1556C19.9199 25.4637 18.6942 25.5592 17.3607 25.9903C15.1382 26.8584 15.5827 29.0237 16.9162 29.4548C23.1392 30.756 23.5837 33.3544 23.5837 34.6515C23.1392 38.5511 21.2135 38.9842 18.6946 38.9842C16.2054 38.9842 13.8005 37.685 12.9161 35.9527C12.2049 33.1811 14.6895 32.9213 15.1385 34.2185C16.4717 38.5511 20.4727 37.2519 20.917 35.9507C21.8062 33.3544 18.9908 32.6306 17.361 32.4862C13.8051 32.0552 12.6196 28.4443 12.916 27.2895C13.9828 23.1321 18.8758 23.7951 19.139 23.825C22.6947 24.258 23.4358 26.7121 23.1395 27.7226Z" fill="black" stroke="black" stroke-width="0.5" stroke-linejoin="round"/>
<path d="M1.35444 39.8502C-1.13477 30.8425 10.0963 20.218 16.023 16.0317L14.2448 19.9293L17.3563 16.0317H18.6898L20.9123 19.9293L20.0233 16.0317C35.3141 26.0788 35.6384 34.7499 34.6918 40.2832C33.8028 45.48 24.9128 46.0574 20.4678 45.913C8.02174 46.2595 5.88952 45.6054 3.57672 43.3147C2.51874 42.2668 1.50997 40.413 1.35444 39.8502Z" stroke="black" stroke-width="2" stroke-linejoin="round"/>
<path d="M14.8212 8.23682L13.4877 2.60701C16.3329 -0.164591 21.4884 1.30768 24.5999 2.17395L22.8219 6.93763L24.5999 4.77232C25.4889 3.90616 27.2669 6.50442 26.8224 7.37069L21.9329 13.4336L20.1549 13.0005L21.4884 9.96907L19.2659 13.0005C16.421 12.3076 15.1172 13.0005 14.8208 13.4336L9.93173 7.37069C9.57613 6.33134 11.5616 4.91667 12.5987 4.33926L14.8212 8.23682Z" stroke="black" stroke-width="2" stroke-linejoin="round"/>
<path d="M17.5451 41.5825C17.5451 41.9691 17.8585 42.2825 18.2451 42.2825C18.6317 42.2825 18.9451 41.9691 18.9451 41.5825H17.5451ZM17.5451 38.9841V41.5825H18.9451V38.9841H17.5451Z" fill="black"/>
<path d="M18.2451 26.0095V29.7801V25.7959" stroke="black" stroke-width="1.4"/>
<path d="M18 32V36.6771" stroke="black" stroke-width="1.4"/>
</svg>
