<svg xmlns="http://www.w3.org/2000/svg" viewBox="0 0 66.22 12.67"><defs><style>.cls-1{fill:#fff;}.cls-2{fill:#3ca1ff;stroke:#2e3192;}.cls-2,.cls-3,.cls-4{stroke-miterlimit:10;stroke-width:0.01px;}.cls-3{fill:#2189d6;}.cls-3,.cls-4{stroke:#27aae1;}.cls-4{fill:#257dbf;}</style></defs><g id="Layer_2" data-name="Layer 2"><g id="Layer_1-2" data-name="Layer 1"><path class="cls-1" d="M17.07,15.35l.63-4.75c.12-1,.35-2.31.63-3.9h-.08c-.51,1.59-1.06,3-1.41,3.82l-2,4.65H13.26L13,10.5c0-.82-.1-2.18-.07-3.76h0c-.3,1.59-.57,2.9-.8,3.89L11,15.39H9.08l3-12.15,2.4,0L14.73,9c0,.89.08,2.15,0,3h0c.24-.88.69-2.13,1-3l2.29-5.77h2.39L19,15.34Z" transform="translate(0 -2.76)"/><path class="cls-1" d="M20.45,15.33l1.64-8.82h2.25l-1.63,8.82Zm2-11.06a1.34,1.34,0,0,1,1.25-1.39A1,1,0,0,1,24.82,4a1.32,1.32,0,0,1-1.29,1.41C22.8,5.45,22.48,4.94,22.49,4.27Z" transform="translate(0 -2.76)"/><path class="cls-1" d="M24.29,15.31l1.1-5.94c.19-1,.32-2,.45-2.88h1.92l-.08,1.14h0a2.94,2.94,0,0,1,2.38-1.3c1.25,0,1.71.87,1.72,1.93a9.6,9.6,0,0,1-.19,1.67l-1,5.36H28.38l1-5.49a4.55,4.55,0,0,0,.1-.92c0-.42-.18-.71-.55-.71-.53,0-1.23.79-1.54,2.47l-.85,4.66Z" transform="translate(0 -2.76)"/><path class="cls-1" d="M40.55,2.76l-1.76,9.57c-.18.94-.32,2-.42,2.9H36.52L36.63,14h0a2.66,2.66,0,0,1-2.11,1.45c-1.28,0-2-1.1-2-2.74,0-3.08,1.62-6.36,4.34-6.38a1.61,1.61,0,0,1,.81.21l.68-3.72ZM37.33,8.2A.73.73,0,0,0,36.77,8c-1.29,0-2.07,2.8-2.06,4.25,0,.8.2,1.3.75,1.29s1-.68,1.22-1.62Z" transform="translate(0 -2.76)"/><path class="cls-1" d="M42.29,3.24A14.31,14.31,0,0,1,44.73,3a3.88,3.88,0,0,1,2.79,1A3.29,3.29,0,0,1,48.27,6a4.82,4.82,0,0,1-1.55,3.64,4.77,4.77,0,0,1-3,1.09,5.33,5.33,0,0,1-.57,0l-.82,4.46h-2.2ZM43.46,8.9l.42,0c1.64,0,2.13-1.64,2.13-2.7,0-.82-.38-1.38-1.27-1.38a2.19,2.19,0,0,0-.55,0Z" transform="translate(0 -2.76)"/><path class="cls-1" d="M54.64,9.27c0,2.77-1.44,6-4.12,6-2.22,0-2.71-1.73-2.72-3,0-3,1.6-6.07,4.27-6.09C54.3,6.18,54.63,8,54.64,9.27ZM50,12.16c0,.64,0,1.43.74,1.42,1.08,0,1.66-3,1.66-4.57,0-.59-.16-1.1-.7-1.1C50.74,7.92,50,10.64,50,12.16Z" transform="translate(0 -2.76)"/><path class="cls-1" d="M55.2,13.2a2.63,2.63,0,0,0,1.41.36,1,1,0,0,0,1-1c0-.5-.25-.83-.87-1.31a2.78,2.78,0,0,1-1.12-2.15,3,3,0,0,1,3.24-3,3.46,3.46,0,0,1,1.66.33l-.48,1.64A2.15,2.15,0,0,0,59,7.86c-.71,0-1.16.38-1.16,1,0,.44.26.72.68,1.05a2.92,2.92,0,0,1,1.32,2.3c0,1.93-1.33,3-3.35,3a3.58,3.58,0,0,1-1.84-.43Z" transform="translate(0 -2.76)"/><path class="cls-1" d="M65,3.9l-.44,2.36h1.66l-.29,1.6H64.26L63.51,12a4.82,4.82,0,0,0-.07.74c0,.55.28.74.69.74a3.39,3.39,0,0,0,.61,0l-.26,1.69a5.48,5.48,0,0,1-1.35.14,1.79,1.79,0,0,1-2-1.92A8,8,0,0,1,61.25,12L62,7.88H61l.28-1.6h1l.34-1.81Z" transform="translate(0 -2.76)"/><polygon class="cls-2" points="0.01 8.45 10.89 0.5 8.4 9.35 0.01 8.45"/><polygon class="cls-3" points="2.96 8.76 4.89 12.64 4.57 8.93 10.89 0.5 2.96 8.76"/><polygon class="cls-4" points="4.89 12.64 6.59 9.15 4.57 8.93 4.89 12.64"/></g></g></svg>