<svg xmlns="http://www.w3.org/2000/svg" viewBox="0 0 71.77 13.56"><defs><style>.cls-1{fill:#fff;}.cls-2{fill:#3ca1ff;stroke:#2e3192;}.cls-2,.cls-3,.cls-4{stroke-miterlimit:10;stroke-width:0.01px;}.cls-3{fill:#2189d6;}.cls-3,.cls-4{stroke:#27aae1;}.cls-4{fill:#257dbf;}</style></defs><g id="Layer_2" data-name="Layer 2"><g id="Layer_1-2" data-name="Layer 1"><path class="cls-1" d="M22.62,15.35l.63-4.75c.12-1,.35-2.31.63-3.9H23.8c-.51,1.59-1.06,3-1.41,3.82l-1.95,4.65H18.82l-.24-4.68c0-.82-.1-2.18-.07-3.76h0c-.3,1.59-.57,2.9-.8,3.89l-1.1,4.76H14.63l3-12.15,2.39,0L20.28,9c0,.89.08,2.15,0,3h.05c.23-.88.69-2.13,1-3l2.29-5.77H26.1L24.59,15.34Z" transform="translate(0 -2.59)"/><path class="cls-1" d="M26,15.33l1.63-8.82h2.25l-1.63,8.82ZM28,4.27a1.35,1.35,0,0,1,1.25-1.39A1,1,0,0,1,30.37,4a1.32,1.32,0,0,1-1.29,1.41C28.35,5.45,28,4.94,28,4.27Z" transform="translate(0 -2.59)"/><path class="cls-1" d="M29.85,15.31l1.09-5.94c.19-1,.33-2,.45-2.88h1.93l-.09,1.14h0a3,3,0,0,1,2.38-1.3c1.26,0,1.71.87,1.72,1.93a9.6,9.6,0,0,1-.19,1.67l-1,5.36H33.93l1-5.49a4.55,4.55,0,0,0,.1-.92c0-.42-.17-.71-.55-.71S33.26,9,33,10.64L32.1,15.3Z" transform="translate(0 -2.59)"/><path class="cls-1" d="M46.1,2.76l-1.76,9.57c-.17.94-.32,2-.42,2.9H42.08l.1-1.29h0A2.64,2.64,0,0,1,40,15.4c-1.27,0-2-1.1-2-2.74,0-3.08,1.61-6.36,4.33-6.38a1.61,1.61,0,0,1,.81.21l.68-3.72ZM42.88,8.2A.72.72,0,0,0,42.32,8c-1.28,0-2.07,2.8-2.06,4.25,0,.8.21,1.3.75,1.29s1-.68,1.22-1.62Z" transform="translate(0 -2.59)"/><path class="cls-1" d="M47.84,3.24A14.41,14.41,0,0,1,50.28,3a3.88,3.88,0,0,1,2.79,1A3.23,3.23,0,0,1,53.82,6a4.85,4.85,0,0,1-1.54,3.64,4.81,4.81,0,0,1-3.05,1.09,5.52,5.52,0,0,1-.58,0l-.82,4.46h-2.2ZM49,8.9l.42,0c1.65,0,2.14-1.64,2.13-2.7,0-.82-.38-1.38-1.27-1.38a2.19,2.19,0,0,0-.55,0Z" transform="translate(0 -2.59)"/><path class="cls-1" d="M60.19,9.27c0,2.77-1.44,6-4.12,6-2.22,0-2.71-1.73-2.72-3,0-3,1.6-6.07,4.27-6.09C59.85,6.18,60.18,8,60.19,9.27Zm-4.62,2.89c0,.64,0,1.43.74,1.42,1.08,0,1.67-3,1.66-4.57,0-.59-.16-1.1-.7-1.1C56.29,7.92,55.55,10.64,55.57,12.16Z" transform="translate(0 -2.59)"/><path class="cls-1" d="M60.75,13.2a2.63,2.63,0,0,0,1.41.36,1,1,0,0,0,1-1c0-.5-.25-.83-.87-1.31a2.78,2.78,0,0,1-1.12-2.15,3,3,0,0,1,3.24-3,3.43,3.43,0,0,1,1.66.33l-.48,1.64a2.12,2.12,0,0,0-1-.26c-.71,0-1.16.38-1.16,1a1.36,1.36,0,0,0,.68,1.05,3,3,0,0,1,1.33,2.3c0,1.93-1.33,3-3.36,3a3.61,3.61,0,0,1-1.84-.43Z" transform="translate(0 -2.59)"/><path class="cls-1" d="M70.56,3.9l-.45,2.36h1.66l-.29,1.6H69.81L69.07,12a5.08,5.08,0,0,0-.08.74c0,.55.29.74.69.74a3.39,3.39,0,0,0,.61,0L70,15.08a5.45,5.45,0,0,1-1.34.14,1.79,1.79,0,0,1-2-1.92A7.13,7.13,0,0,1,66.81,12l.75-4.09h-1l.28-1.6h1l.34-1.81Z" transform="translate(0 -2.59)"/><polygon class="cls-2" points="0.02 8.87 15.25 0.01 11.77 9.87 0.02 8.87"/><polygon class="cls-3" points="4.14 9.22 6.86 13.54 6.4 9.41 15.25 0.01 4.14 9.22"/><polygon class="cls-4" points="6.86 13.54 9.23 9.65 6.4 9.41 6.86 13.54"/></g></g></svg>