<svg xmlns="http://www.w3.org/2000/svg" viewBox="0 0 85.83 19.54"><defs><style>.cls-1{fill:#3ca1ff;}.cls-2{fill:#fdfeff;}</style></defs><g id="Layer_2" data-name="Layer 2"><g id="Layer_1-2" data-name="Layer 1"><path class="cls-1" d="M1.39,3.62a28.49,28.49,0,0,1,4.32-.3c2.69,0,4.45.49,5.81,1.51a6.26,6.26,0,0,1,2.39,5.33,7.16,7.16,0,0,1-2.34,5.73C10.08,17.13,7.8,17.72,5,17.72a29.1,29.1,0,0,1-3.64-.2Zm3.2,11.55a7.61,7.61,0,0,0,1.12.05c2.9,0,4.81-1.57,4.81-5,0-2.94-1.72-4.48-4.47-4.48a7.35,7.35,0,0,0-1.46.12Z" transform="translate(-1.39 -2.67)"/><path class="cls-1" d="M20.72,17.58l-.19-1h-.07a3.72,3.72,0,0,1-2.94,1.25,3.14,3.14,0,0,1-3.32-3.15c0-2.67,2.4-3.94,6-3.94v-.13c0-.55-.3-1.33-1.89-1.32a5.78,5.78,0,0,0-2.83.77l-.59-2a8.31,8.31,0,0,1,4-.92c3.42,0,4.51,2,4.51,4.43v3.59a15.14,15.14,0,0,0,.16,2.49Zm-.39-4.86c-1.68,0-3,.39-3,1.62a1.15,1.15,0,0,0,1.27,1.23,1.75,1.75,0,0,0,1.65-1.18,2,2,0,0,0,.06-.55Z" transform="translate(-1.39 -2.67)"/><path class="cls-1" d="M28.21,4.45A1.58,1.58,0,0,1,26.49,6a1.56,1.56,0,0,1-1.66-1.59,1.69,1.69,0,0,1,3.38,0ZM24.92,17.58V7.3h3.2V17.58Z" transform="translate(-1.39 -2.67)"/><path class="cls-1" d="M29.63,2.67h3.2V17.58h-3.2Z" transform="translate(-1.39 -2.67)"/><path class="cls-1" d="M36.77,7.3l1.54,5.05c.17.6.37,1.37.51,1.91h.07c.14-.55.3-1.32.46-1.91l1.26-5H44l-2.39,6.76c-1.47,4.09-2.46,5.71-3.62,6.74a5.68,5.68,0,0,1-3.08,1.41l-.69-2.7A4.45,4.45,0,0,0,35.64,19,3.67,3.67,0,0,0,37,17.69a.87.87,0,0,0,.18-.46A1.36,1.36,0,0,0,37,16.7L33.23,7.3Z" transform="translate(-1.39 -2.67)"/><path class="cls-2" d="M56.42,12.17c-.07-1.72-.13-3.76-.12-5.84h-.06c-.45,1.82-1.05,3.83-1.58,5.5l-1.74,5.52H50.43l-1.52-5.47c-.46-1.67-.93-3.68-1.28-5.55h-.05c-.07,1.93-.15,4.11-.23,5.88l-.27,5.37h-3L45,3.43H49.3l1.38,4.73c.45,1.62.88,3.4,1.2,5.05H52c.39-1.63.87-3.5,1.35-5.08l1.5-4.7H59l.76,14.15H56.64Z" transform="translate(-1.39 -2.67)"/><path class="cls-2" d="M64.49,4.45A1.59,1.59,0,0,1,62.77,6,1.57,1.57,0,0,1,61.1,4.45a1.7,1.7,0,0,1,3.39,0Zm-3.3,13.13V7.3H64.4V17.58Z" transform="translate(-1.39 -2.67)"/><path class="cls-2" d="M65.9,10.58c0-1.28,0-2.36-.08-3.28h2.77l.15,1.42h.07A3.72,3.72,0,0,1,72,7.07c2.1,0,3.68,1.4,3.68,4.42v6.09h-3.2v-5.7c0-1.32-.47-2.23-1.63-2.23a1.73,1.73,0,0,0-1.62,1.21,2.32,2.32,0,0,0-.11.79v5.93H65.9Z" transform="translate(-1.39 -2.67)"/><path class="cls-2" d="M87.14,2.67V14.51c0,1.16,0,2.38.09,3.07H84.38l-.13-1.51h0A3.59,3.59,0,0,1,81,17.81c-2.43,0-4.39-2.08-4.39-5.28,0-3.45,2.15-5.46,4.6-5.46A3.13,3.13,0,0,1,83.9,8.23h0V2.67Zm-3.2,9a3.86,3.86,0,0,0,0-.58A1.9,1.9,0,0,0,82,9.52c-1.46,0-2.2,1.3-2.2,2.92s.85,2.82,2.18,2.82a1.88,1.88,0,0,0,1.85-1.53,2.8,2.8,0,0,0,.07-.72Z" transform="translate(-1.39 -2.67)"/></g></g></svg>