<svg xmlns="http://www.w3.org/2000/svg" viewBox="0 0 67.98 12.67"><defs><style>.cls-1{fill:#fff;}.cls-2{fill:#3ca1ff;stroke:#2e3192;}.cls-2,.cls-3,.cls-4{stroke-miterlimit:10;stroke-width:0.01px;}.cls-3{fill:#2189d6;}.cls-3,.cls-4{stroke:#27aae1;}.cls-4{fill:#257dbf;}</style></defs><g id="Layer_2" data-name="Layer 2"><g id="Layer_1-2" data-name="Layer 1"><path class="cls-1" d="M18.83,15.35l.63-4.75c.12-1,.35-2.31.63-3.9H20c-.51,1.59-1.05,3-1.41,3.82l-2,4.65H15l-.24-4.68c0-.82-.1-2.18-.06-3.76h0c-.3,1.59-.57,2.9-.81,3.89l-1.09,4.76H10.84l3-12.15,2.39,0L16.49,9c0,.89.08,2.15.05,3h.05a31.57,31.57,0,0,1,1.05-3l2.28-5.77h2.39L20.8,15.34Z" transform="translate(0 -2.76)"/><path class="cls-1" d="M22.22,15.33l1.63-8.82h2.26l-1.64,8.82Zm2-11.06A1.33,1.33,0,0,1,25.5,2.88,1,1,0,0,1,26.58,4,1.32,1.32,0,0,1,25.3,5.45C24.56,5.45,24.25,4.94,24.26,4.27Z" transform="translate(0 -2.76)"/><path class="cls-1" d="M26.06,15.31l1.09-5.94c.2-1,.33-2,.45-2.88h1.93l-.09,1.14h0a2.94,2.94,0,0,1,2.37-1.3c1.26,0,1.72.87,1.72,1.93a8,8,0,0,1-.19,1.67l-1,5.36H30.15l1-5.49a4.55,4.55,0,0,0,.1-.92c0-.42-.17-.71-.55-.71s-1.23.79-1.54,2.47l-.85,4.66Z" transform="translate(0 -2.76)"/><path class="cls-1" d="M42.32,2.76l-1.77,9.57c-.17.94-.32,2-.42,2.9H38.29l.1-1.29h0a2.63,2.63,0,0,1-2.1,1.45c-1.28,0-2-1.1-2-2.74,0-3.08,1.61-6.36,4.34-6.38a1.57,1.57,0,0,1,.8.21l.68-3.72ZM39.09,8.2A.72.72,0,0,0,38.53,8c-1.28,0-2.07,2.8-2.06,4.25,0,.8.21,1.3.75,1.29s1-.68,1.22-1.62Z" transform="translate(0 -2.76)"/><path class="cls-1" d="M44.06,3.24A14.19,14.19,0,0,1,46.49,3a3.88,3.88,0,0,1,2.79,1A3.23,3.23,0,0,1,50,6a4.85,4.85,0,0,1-1.54,3.64,4.81,4.81,0,0,1-3.05,1.09,5.24,5.24,0,0,1-.57,0L44,15.21h-2.2ZM45.22,8.9l.42,0c1.65,0,2.14-1.64,2.13-2.7,0-.82-.38-1.38-1.27-1.38a2.06,2.06,0,0,0-.54,0Z" transform="translate(0 -2.76)"/><path class="cls-1" d="M56.4,9.27c0,2.77-1.44,6-4.12,6-2.22,0-2.71-1.73-2.71-3,0-3,1.59-6.07,4.27-6.09C56.06,6.18,56.39,8,56.4,9.27Zm-4.61,2.89c0,.64,0,1.43.73,1.42,1.08,0,1.67-3,1.66-4.57,0-.59-.15-1.1-.7-1.1C52.5,7.92,51.76,10.64,51.79,12.16Z" transform="translate(0 -2.76)"/><path class="cls-1" d="M57,13.2a2.67,2.67,0,0,0,1.42.36,1,1,0,0,0,1-1c0-.5-.25-.83-.87-1.31A2.78,2.78,0,0,1,57.4,9.11a3,3,0,0,1,3.24-3,3.43,3.43,0,0,1,1.66.33l-.47,1.64a2.18,2.18,0,0,0-1-.26c-.71,0-1.17.38-1.16,1,0,.44.25.72.67,1.05a3,3,0,0,1,1.33,2.3c0,1.93-1.33,3-3.36,3a3.61,3.61,0,0,1-1.84-.43Z" transform="translate(0 -2.76)"/><path class="cls-1" d="M66.77,3.9l-.44,2.36H68l-.29,1.6H66L65.28,12a3.82,3.82,0,0,0-.07.74c0,.55.28.74.69.74a3.45,3.45,0,0,0,.61,0l-.26,1.69a5.58,5.58,0,0,1-1.35.14,1.79,1.79,0,0,1-2-1.92A7.13,7.13,0,0,1,63,12l.75-4.09h-1L63,6.28h1l.34-1.81Z" transform="translate(0 -2.76)"/><polygon class="cls-2" points="0.01 8.45 10.89 0.5 8.4 9.35 0.01 8.45"/><polygon class="cls-3" points="2.96 8.76 4.89 12.64 4.57 8.93 10.89 0.5 2.96 8.76"/><polygon class="cls-4" points="4.89 12.64 6.59 9.15 4.57 8.93 4.89 12.64"/></g></g></svg>